<svg xmlns="http://www.w3.org/2000/svg" viewBox="0 0 407.19 458.89"><defs><style>.cls-1{fill:#fff;}</style></defs><g id="Layer_2" data-name="Layer 2"><g id="Layer_1-2" data-name="Layer 1"><path d="M117.56,14.35c.8-1.09,1.54-2,2.21-3a7.65,7.65,0,0,1,6.68-3.63c10.1,0,20.19,0,30.28,0A7.48,7.48,0,0,1,163,10.8c.13.17.29.31.5.54.29-.33.55-.65.81-.95a7.05,7.05,0,0,1,5.47-2.66c.68,0,1.36,0,2,0q39.19,0,78.38,0A8.16,8.16,0,0,1,257.34,11a2.86,2.86,0,0,0,.4.35c.29-.36.55-.7.83-1a7.17,7.17,0,0,1,5.5-2.62h17.57a7.09,7.09,0,0,1,5,2.19c.55.54,1,1.13,1.62,1.76a7.62,7.62,0,0,0,.68-.74q2.88-3.78,5.73-7.57A7.7,7.7,0,0,1,301,0h1q30.15,0,60.29,0a11.93,11.93,0,0,1,2.93.26A7.67,7.67,0,0,1,371,9.22c-1.44,7.42-2.93,14.84-4.39,22.26A21.38,21.38,0,0,1,365.29,36a12.45,12.45,0,0,0-.56,2.62q-1.83,9.24-3.65,18.48c-.07.33-.09.67-.15,1.1.55.23,1.09.46,1.62.7a28.65,28.65,0,0,1,6.13,4c9.56,7.69,19.1,15.41,28.68,23.07a25.81,25.81,0,0,1,7.82,9.51,20.46,20.46,0,0,1,2,8.54q0,60,0,120a22.51,22.51,0,0,1-4.42,13.51,21.67,21.67,0,0,1-4.16,4.34c-1.53,1.24-3.07,2.46-4.6,3.69-.33.26-.64.55-1,.87.86.55,1.66,1,2.43,1.56a22.83,22.83,0,0,1,10.05,15.6,10.6,10.6,0,0,1,.14,1.78q0,27.72,0,55.43a19.67,19.67,0,0,1-3.19,10.15,22.84,22.84,0,0,1-5.82,6.51c.85.79,1.68,1.51,2.45,2.29a23.05,23.05,0,0,1,6.49,12.95,13.64,13.64,0,0,1,.08,1.92q0,28.62,0,57.23a21.17,21.17,0,0,1-3.25,10.91c-2,3.47-5,6-8.26,8.29-9.86,7.15-19.66,14.39-29.51,21.55a56.22,56.22,0,0,1-6.45,4.16,19,19,0,0,1-9,2.16q-147.29,0-294.56,0a22.71,22.71,0,0,1-14.18-4.73c-3.67-2.8-7.23-5.74-10.82-8.64L10,429.75a25.65,25.65,0,0,1-7.61-9.37,19.93,19.93,0,0,1-2-8.41q0-60,0-120.09a23,23,0,0,1,8.5-17.76l19.83-16.07c.26-.21.51-.44.89-.77-.4-.32-.75-.62-1.11-.88q-9.21-6.75-18.43-13.47a24.58,24.58,0,0,1-8-9.5A20.55,20.55,0,0,1,0,224.65q0-59.85,0-119.71A22.77,22.77,0,0,1,4.54,91.21a29.76,29.76,0,0,1,7-6.37q12.3-9,24.58-18.08c2-1.45,3.88-3,5.9-4.32a2.28,2.28,0,0,0,1.08-2.22q0-18,0-36.06c0-5.47,0-10.95,0-16.42A7.57,7.57,0,0,1,48.78.29,8.78,8.78,0,0,1,51.06,0q25.6,0,51.19,0A8.14,8.14,0,0,1,109,3.37c2.6,3.34,5.19,6.68,7.8,10C117,13.66,117.2,13.91,117.56,14.35ZM229.78,147.06l0-.25a7,7,0,0,1,.8-.32,13.58,13.58,0,0,0,4.93-2.66,14.57,14.57,0,0,0,5.68-11.56q0-17.51,0-35V95.9a136.43,136.43,0,0,0-15.44.08v35.63H119.19v65.51h59.28V181.81H135.21c-1.78,0-3.55,0-5.3,0V162.05h95.83v54.81H164.25v25.4c0,2.07,0,4.15,0,6.29H163q-52.27,0-104.55,0A3.06,3.06,0,0,1,56.6,248Q40.33,236,24,224.1a2,2,0,0,1-.89-1.82q0-57.85,0-115.73a2.07,2.07,0,0,1,1-1.89c6.08-4.43,12.13-8.91,18.19-13.37l.95-.72c-.06-1.68-.15-3.17-.16-4.65,0-4.41,0-8.81,0-13.22,0-.36,0-.73-.07-1.3-.68.49-1.2.85-1.7,1.22L32.7,78.93c-6.3,4.64-12.64,9.21-18.88,13.94A14.63,14.63,0,0,0,7.73,105q0,59.42,0,118.82A15.43,15.43,0,0,0,8.36,228,16.32,16.32,0,0,0,15,236.84c6.33,4.59,12.62,9.23,18.94,13.85q6.93,5.07,13.86,10.15A16.5,16.5,0,0,0,58,264.1q52.21-.06,104.43,0h1.86v1.81q0,40.61,0,81.22a10.7,10.7,0,0,0,.12,2A15.28,15.28,0,0,0,175,361.65c6.5,2.24,13.05,4.32,19.58,6.47.37.12.72.28,1.08.42l-.06.24h-1.25c-5,0-9.92,0-14.88,0a15.09,15.09,0,0,0-15.25,15q0,26.24,0,52.48a13.17,13.17,0,0,0,1.41,6.06c2.91,5.71,7.52,8.87,14,8.87H348.12a6.76,6.76,0,0,0,.9,0c1.18-.18,2.37-.32,3.52-.59a16.35,16.35,0,0,0,5.74-3l15.43-11.29c6-4.41,12.12-8.77,18.09-13.28a14.6,14.6,0,0,0,6.12-12.12q0-27.52,0-55a10.2,10.2,0,0,0-.05-1.66c-1-6.24-4.41-10.6-10.4-12.69-6.69-2.33-13.45-4.46-20.19-6.68-.31-.1-.61-.25-.91-.38l.08-.13h4.21c4,0,8,0,12.06,0a14.34,14.34,0,0,0,5.39-1,15.46,15.46,0,0,0,9.83-14q-.06-26.18,0-52.35a13.51,13.51,0,0,0-.11-1.91,15.68,15.68,0,0,0-15.36-13.15q-69.72.13-139.45.05h-1.77v-1.76q0-44.27,0-88.54a14.59,14.59,0,0,0-5.76-11.64A15.11,15.11,0,0,0,229.78,147.06Zm-193.59,115-2.52,2c-6.61,5.35-13.25,10.67-19.82,16.08-3.49,2.87-5.67,6.56-5.67,11.18q-.06,60,0,120.09a10.57,10.57,0,0,0,.17,2A16,16,0,0,0,14.08,423C16,424.58,18,426.14,20,427.72q12.33,9.93,24.68,19.87a15.94,15.94,0,0,0,10.3,3.59q52.61-.06,105.2,0c.29,0,.6,0,.89,0a7.94,7.94,0,0,0,.83-.13,55.31,55.31,0,0,1-2.92-4.75,25.66,25.66,0,0,1-1.89-5.15,49.83,49.83,0,0,1-.71-5.49H55.92a2.88,2.88,0,0,1-2-.62q-14.56-11.77-29.18-23.49A2.91,2.91,0,0,1,23.53,409q0-57.48,0-114.95a3,3,0,0,1,1.23-2.57Q37,281.59,49.18,271.66c.3-.24.77-.39.78-.92C44.68,269,40.82,265.08,36.19,262.09ZM50.87,88h31c6.45,0,12.91,0,19.36,0a2.15,2.15,0,0,0,1.92-.95q3.93-5.15,8-10.23a2.63,2.63,0,0,0,.59-1.75q0-9.11,0-18.22a2.53,2.53,0,0,0-.62-1.74c-2.33-3-4.64-5.93-6.95-8.89-.26-.33-.5-.68-.83-1.12.43-.38.82-.7,1.19-1.05,2.13-2,4.24-4.11,6.39-6.13A2.31,2.31,0,0,0,111.7,36q0-7.44.1-14.87a3.74,3.74,0,0,0-.86-2.57q-3.91-4.92-7.72-9.92a2.27,2.27,0,0,0-2-1q-24.43,0-48.87,0H50.87ZM327.7,63.46V60.1h24.85c1.62-8.22,3.22-16.32,4.84-24.57H327.71V32.19h30.75c1.62-8.18,3.21-16.24,4.8-24.32a2.18,2.18,0,0,0-.49-.15H302.1a6.77,6.77,0,0,0-.76.08.16.16,0,0,0-.11,0,2.05,2.05,0,0,0-.15.22V87.89h45.58c1.6-8.14,3.2-16.21,4.82-24.43ZM182.17,35.58V80.09c2.83.27,20.86.15,21.76-.13,0,0,0-.08,0-.12l0-43.49c0-.12,0-.25,0-.38l0-.12a.39.39,0,0,1,.06-.11s.06-.06.09-.09c2-.23,18.14-.14,19.16.13V80.06c2,.26,20.08.17,21-.11V46.76c0-3.71,0-7.41,0-11.25H255.6c.27-1.93.18-19-.07-19.93H170.42v20Zm173.51,46.9c.4.33.71.62,1,.88q13.09,10.55,26.2,21.06a2.81,2.81,0,0,1,1.17,2.46q0,57.48,0,115a2.92,2.92,0,0,1-1.21,2.58q-11.82,9.36-23.55,18.82c-.3.24-.73.4-.82.87a1.89,1.89,0,0,0,.33,0c7.87,0,15.73,0,23.6,0a2.08,2.08,0,0,0,1.39-.53c3.36-2.7,6.79-5.33,10.09-8.11a14.76,14.76,0,0,0,5.55-11.77q0-59.47,0-118.94A14.79,14.79,0,0,0,398,98.52,18.8,18.8,0,0,0,392.37,92c-8.18-6.55-16.32-13.14-24.49-19.69-2.16-1.74-4.36-3.45-6.58-5.12a19,19,0,0,0-2.33-1.3C357.85,71.5,356.78,76.94,355.68,82.48ZM168.74,80.12q-6-32.36-12-64.54h-30.4q-6,32.3-12,64.54ZM140.27,384.18v-1.47c0-5.72-.09-11.45-.1-17.18q0-15.13-.06-30.26,0-7.63-.05-15.26c0-.45,0-.9-.06-1.31H110.87v65.48Zm127.51-252.6V197c1.39.26,28.16.22,29,0V131.58Zm13.69-71.46V26.67c0-3.7,0-7.4,0-11.09H259.71V80.13h37c1.31-6.64,2.61-13.24,3.94-20Z"/><path class="cls-1" d="M229.78,147.06a15.11,15.11,0,0,1,5.68,2.87,14.59,14.59,0,0,1,5.76,11.64q0,44.27,0,88.54v1.76H243q69.74,0,139.45-.05A15.68,15.68,0,0,1,397.81,265a13.51,13.51,0,0,1,.11,1.91q0,26.17,0,52.35a15.46,15.46,0,0,1-9.83,14,14.34,14.34,0,0,1-5.39,1c-4-.05-8,0-12.06,0h-4.21l-.08.13c.3.13.6.28.91.38,6.74,2.22,13.5,4.35,20.19,6.68,6,2.09,9.38,6.45,10.4,12.69a10.2,10.2,0,0,1,.05,1.66q0,27.52,0,55A14.6,14.6,0,0,1,391.8,423c-6,4.51-12.06,8.87-18.09,13.28l-15.43,11.29a16.35,16.35,0,0,1-5.74,3c-1.15.27-2.34.41-3.52.59a6.76,6.76,0,0,1-.9,0H179.67c-6.5,0-11.11-3.16-14-8.87a13.17,13.17,0,0,1-1.41-6.06q0-26.24,0-52.48a15.09,15.09,0,0,1,15.25-15c5,0,9.92,0,14.88,0h1.25l.06-.24c-.36-.14-.71-.3-1.08-.42-6.53-2.15-13.08-4.23-19.58-6.47a15.28,15.28,0,0,1-10.65-12.5,10.7,10.7,0,0,1-.12-2q0-40.62,0-81.22v-1.81h-1.86q-52.21,0-104.43,0a16.5,16.5,0,0,1-10.17-3.26q-6.91-5.1-13.86-10.15c-6.32-4.62-12.61-9.26-18.94-13.85A16.32,16.32,0,0,1,8.36,228a15.43,15.43,0,0,1-.61-4.15q0-59.42,0-118.82a14.63,14.63,0,0,1,6.09-12.14c6.24-4.73,12.58-9.3,18.88-13.94l8.58-6.31c.5-.37,1-.73,1.7-1.22,0,.57.07.94.07,1.3,0,4.41,0,8.81,0,13.22,0,1.48.1,3,.16,4.65l-.95.72c-6.06,4.46-12.11,8.94-18.19,13.37a2.07,2.07,0,0,0-1,1.89q0,57.87,0,115.73A2,2,0,0,0,24,224.1Q40.32,236,56.6,248a3.06,3.06,0,0,0,1.89.62q52.28,0,104.55,0h1.19c0-2.14,0-4.22,0-6.29v-25.4h61.49V162.05H129.91v19.73c1.75.06,3.52,0,5.3,0h43.26v15.31H119.19V131.61h106.6V96a136.43,136.43,0,0,1,15.44-.08v1.35q0,17.5,0,35a14.57,14.57,0,0,1-5.68,11.56,13.58,13.58,0,0,1-4.93,2.66,7,7,0,0,0-.8.32ZM382.33,267.37H241.23v26.49H179.79v53l106.52,35v2.42H179.85c-.26,2.16-.17,50.36.11,51.35h1.12q82.93,0,165.89,0a3.15,3.15,0,0,0,2-.64q16.13-11.83,32.3-23.63a2.41,2.41,0,0,0,1.15-2.19q-.06-25.8,0-51.58v-1.45l-106.53-35v-2.44H382.33ZM178.6,245.44c1.18-1.28,2.18-2.33,3.13-3.42a1.72,1.72,0,0,1,1.44-.63c5.18,0,10.35,0,15.52,0a1.87,1.87,0,0,1,1.54.71c.87,1,1.78,2,2.7,2.92a1.87,1.87,0,0,1,.55,1.36q0,8.87,0,17.71a1.81,1.81,0,0,1-.54,1.37q-1.42,1.47-2.79,3a1.67,1.67,0,0,1-1.33.61c-5.26,0-10.52,0-15.77,0a1.61,1.61,0,0,1-1.32-.63c-.8-.89-1.61-1.76-2.43-2.64a5.92,5.92,0,0,0-.7-.55v14h48.1V255.71l-.16,0c-.31,1.26-.63,2.53-1,3.91H215.7V269H205v-27.6h21.71V231.14H178.6Zm13.9,15V250.14h-3.1V260.4Zm32-10.16c-.07-.09,2.18,0,2.11-.13h-11c.24.38.33.7.51.76a3.44,3.44,0,0,0,1,.06h7.8a7.37,7.37,0,0,0,1.41-.05C226.52,250.85,224.36,250.41,224.53,250.24Z"/><path class="cls-1" d="M36.19,262.09c4.63,3,8.49,6.92,13.77,8.65,0,.53-.48.68-.78.92Q37,281.57,24.75,291.44A3,3,0,0,0,23.52,294q.06,57.48,0,115a2.91,2.91,0,0,0,1.21,2.57Q39.37,423.23,53.92,435a2.88,2.88,0,0,0,2,.62H156.34a49.83,49.83,0,0,0,.71,5.49,25.66,25.66,0,0,0,1.89,5.15,55.31,55.31,0,0,0,2.92,4.75,7.94,7.94,0,0,1-.83.13c-.29,0-.6,0-.89,0q-52.6,0-105.2,0a15.94,15.94,0,0,1-10.3-3.59Q32.28,437.68,20,427.72c-2-1.58-3.95-3.14-5.88-4.76a16,16,0,0,1-5.75-9.45,10.57,10.57,0,0,1-.17-2q0-60,0-120.09c0-4.62,2.18-8.31,5.67-11.18,6.57-5.41,13.21-10.73,19.82-16.08Z"/><path class="cls-1" d="M50.87,88V7.71h1.44q24.43,0,48.87,0a2.27,2.27,0,0,1,2,1q3.8,5,7.72,9.92a3.74,3.74,0,0,1,.86,2.57q-.1,7.43-.1,14.87a2.31,2.31,0,0,1-.83,1.88c-2.15,2-4.26,4.09-6.39,6.13-.37.35-.76.67-1.19,1.05.33.44.57.79.83,1.12,2.31,3,4.62,5.94,6.95,8.89a2.53,2.53,0,0,1,.62,1.74q0,9.12,0,18.22a2.63,2.63,0,0,1-.59,1.75q-4,5.1-8,10.23a2.15,2.15,0,0,1-1.92.95c-6.45,0-12.91,0-19.36,0h-31ZM85.55,66.18a53.79,53.79,0,0,0-.1-8.78H77v8.78ZM77,29.37v6.09h8.58V29.37H77Z"/><path class="cls-1" d="M327.7,63.46h23.78c-1.62,8.22-3.22,16.29-4.82,24.43H301.08V8.06a2.05,2.05,0,0,1,.15-.22.16.16,0,0,1,.11,0,6.77,6.77,0,0,1,.76-.08h60.67a2.18,2.18,0,0,1,.49.15c-1.59,8.08-3.18,16.14-4.8,24.32H327.71v3.34h29.68c-1.62,8.25-3.22,16.35-4.84,24.57H327.7Z"/><path class="cls-1" d="M182.17,35.58H170.42v-20h85.11c.25.89.34,18,.07,19.93H244.35c0,3.84,0,7.54,0,11.25V80c-.92.28-19,.37-21,.11V35.78c-1-.27-17.19-.36-19.16-.13,0,0-.07.05-.09.09a.39.39,0,0,0-.06.11l0,.12c0,.13,0,.26,0,.38l0,43.49s0,.08,0,.12c-.9.28-18.93.4-21.76.13Z"/><path class="cls-1" d="M355.68,82.48c1.1-5.54,2.17-11,3.29-16.62a19,19,0,0,1,2.33,1.3c2.22,1.67,4.42,3.38,6.58,5.12,8.17,6.55,16.31,13.14,24.49,19.69A18.8,18.8,0,0,1,398,98.52a14.79,14.79,0,0,1,1.47,6.31q0,59.46,0,118.94a14.76,14.76,0,0,1-5.55,11.77c-3.3,2.78-6.73,5.41-10.09,8.11a2.08,2.08,0,0,1-1.39.53c-7.87,0-15.73,0-23.6,0a1.89,1.89,0,0,1-.33,0c.09-.47.52-.63.82-.87q11.76-9.44,23.55-18.82a2.92,2.92,0,0,0,1.21-2.58q0-57.48,0-115a2.81,2.81,0,0,0-1.17-2.46q-13.14-10.48-26.2-21.06C356.39,83.1,356.08,82.81,355.68,82.48Z"/><path class="cls-1" d="M168.74,80.12H114.38q6-32.29,12-64.54h30.4Q162.75,47.82,168.74,80.12ZM143.52,60.07c-.64-3.41-1.24-6.65-1.84-9.89l-.26,0c-.6,3.26-1.2,6.53-1.81,9.87Z"/><path class="cls-1" d="M140.27,384.18h-29.4V318.7H140c0,.41.06.86.06,1.31q0,7.62.05,15.26,0,15.14.06,30.26c0,5.73.06,11.46.1,17.18Z"/><path class="cls-1" d="M267.78,131.58h29V197c-.88.23-27.65.27-29,0Z"/><path class="cls-1" d="M281.47,60.12h19.14c-1.33,6.77-2.63,13.37-3.94,20h-37V15.58h21.75c0,3.69,0,7.39,0,11.09V60.12Z"/><path d="M382.33,267.37v51.32H275.86v2.44l106.53,35v1.45q0,25.78,0,51.58a2.41,2.41,0,0,1-1.15,2.19Q365.1,423.16,349,435a3.15,3.15,0,0,1-2,.64q-83,0-165.89,0H180c-.28-1-.37-49.19-.11-51.35H286.31v-2.42l-106.52-35v-53h61.44V267.37Z"/><path class="cls-1" d="M178.6,245.44v-14.3h48.08v10.23H205V269H215.7V259.6h9.87c.34-1.38.66-2.65,1-3.91l.16,0v23.53H178.6v-14a5.92,5.92,0,0,1,.7.55c.82.88,1.63,1.75,2.43,2.64a1.61,1.61,0,0,0,1.32.63c5.25,0,10.51,0,15.77,0a1.67,1.67,0,0,0,1.33-.61q1.36-1.53,2.79-3a1.81,1.81,0,0,0,.54-1.37q0-8.85,0-17.71a1.87,1.87,0,0,0-.55-1.36c-.92-.95-1.83-1.92-2.7-2.92a1.87,1.87,0,0,0-1.54-.71c-5.17,0-10.34,0-15.52,0a1.72,1.72,0,0,0-1.44.63C180.78,243.11,179.78,244.16,178.6,245.44Z"/><path class="cls-1" d="M192.5,260.4h-3.1V250.14h3.1Z"/><path class="cls-1" d="M224.3,250.28c-.17.17,2.22.57,2,.6a7.37,7.37,0,0,1-1.41.05h-7.8a3.44,3.44,0,0,1-1-.06c-.18-.06-.27-.38-.51-.76h11C226.71,250.2,224.23,250.19,224.3,250.28Z"/><path d="M85.55,66.18H77V57.4h8.43A53.79,53.79,0,0,1,85.55,66.18Z"/><path d="M77,29.37h8.58v6.09H77Z"/><path d="M143.52,60.07h-3.91c.61-3.34,1.21-6.61,1.81-9.87l.26,0C142.28,53.42,142.88,56.66,143.52,60.07Z"/><polygon class="cls-1" points="233.39 281.13 225.74 281.13 225.74 229.02 233.39 229.35 233.39 281.13"/><polygon class="cls-1" points="229.93 263.85 172.54 262.68 172.93 246.9 232.87 244.63 229.93 263.85"/><rect x="145.08" y="208.44" width="80.67" height="40.11"/><polygon class="cls-1" points="174.59 260.96 176.09 298.4 241.7 270.01 230.85 257.78 174.59 260.96"/><polygon points="241.23 267.37 179.79 293.86 179.79 300.35 250.76 299.68 252.54 273.35 241.23 267.37"/><polygon points="141.56 7.71 109.2 7.71 117.54 16.9 126.31 13.24 184.76 13.68 281.09 14.02 294.87 14.02 291.42 7.71 141.56 7.71"/><rect x="160.05" y="264.1" width="87.54" height="44.67"/><path class="cls-1" d="M248.58,267.39H215.23a3.19,3.19,0,0,0-2,.64q-16.12,11.84-32.29,23.63a2.41,2.41,0,0,0-1.15,2.19q0,25.8,0,51.58v1.45l-5.07,14.72c-6-2.09-9.39-6.45-10.4-12.69a10.2,10.2,0,0,1-.06-1.66q0-27.53,0-55.05a14.58,14.58,0,0,1,6.12-12.12c6-4.51,12-8.87,18.09-13.28l15.42-11.29a16.43,16.43,0,0,1,5.74-3c1.16-.27,2.35-.41,3.53-.59a6.61,6.61,0,0,1,.89,0h33.51Z"/><rect class="cls-1" x="191.07" y="228.45" width="15.55" height="55.75" transform="translate(455.17 57.48) rotate(90)"/></g></g></svg>