<svg xmlns="http://www.w3.org/2000/svg" viewBox="0 0 1012.09 473.19"><g id="Layer_2" data-name="Layer 2"><g id="Layer_1-2" data-name="Layer 1"><path d="M84,5.38h19.5l13.2.6h4.2c.3,0,13.2-2.1,14.1-2.1a16,16,0,0,1,6.6.6c1.5,0,5.7,2.7,6.9,4.8l-2.1,1.8c0,3.6-.6,7.2-.6,10.8,0,4.2-.9,6.3-2.7,11.1-.6,2.1,0,3.6.9,5.4v16.5a10,10,0,0,1-6.6,2.4,10.4,10.4,0,0,1-6.6-3.9l-3-9.3a20.91,20.91,0,0,0-3.6-4.2l-.6-1.2-1.2-1.2-.3-.9-.6-1.2c-4.5-6.3-7.8-7.8-17.1-11.7-9.9-3.9-33.6-6.6-43.2.9-3.6,2.7-5.7,6.6-6.3,13.8,0,2.4-.3,4.5-.3,6.9-.6,3.6-1.5,3.3-2.7,7.5V57c-.9,5.7,2.4,27.3,4.2,33.9,7.5,1.5,17.1.9,20.4.6,4.2,0,5.7,1.2,10.2-1.8,1.2-2.1,1.2-2.7,4.2-3.9l1.2-1.2.9-1.5c.3-.3.6-1.8,1.2-2.7,1.2-2.4,2.7-3.3,6.3-3.3,3,0,3.6-.3,6.9.6,2.1,9.6,1.5,13.8.6,23.7v7.2c0,2.1.6,11.1.6,14.7v11.1l-2.1,2.4c-5.7,0-5.4.3-8.7-3.3-5.4-3.6-7.8-5.7-9-7.2-2.1-5.4-1.5-3.3-6.6-8.1-5.4-5.1-8.4-6.6-9-6.9-3.3-1.5-12.9-2.4-16.8.3-4.5,3.3-4.8,21-5.7,25.5l-2.4,18.6c8.1,21.9-2.1,25.2,9.3,37.2,1.5,1.5,7.8,6.6,8.7,6.9,3.6,3.6,3,5.1,2.7,9-2.1,1.5-5.7,1.5-7.8,1.5H57c-12.6-.3-15.6.6-21.3,0H24.9c-15.9,1.5-8.4,2.1-24.9-1.8v-3.3c3.9-3.9,6-6,11.1-15,.9-1.5,3.6-6,4.2-7.5.3-2.1-.3-5.7-.6-8.1v-15.9c.3-2.1-.3-12.3,0-17.7.6-7.5,3-16.8,2.7-18.3L15.6,105c0-5.4.6-13.5,1.2-19.5l3-16.2c.6-4.8-1.8-21.6-2.4-27V33c-.6-6-2.7-10.8-6-14.1-2.7-3-4.5-2.7-6.9-5.1S.3,9.88,1.8,6.58c1.5-.6,7.5-1.2,9.3-1.2,2.7,0,6.3-2.1,9.6-2.1h7.8c12.9,1.8,18.3-1.2,32.4,5.1C70.2,7.18,74.4,5.38,84,5.38Z"/><path d="M336.15,33.28c11.7,18,19.2,21.6,26.7,39,.3.9,6.6,15.9,6.6,19.8a59.3,59.3,0,0,1-1.2,9.9,46.84,46.84,0,0,0-.6,9.9v8.7c-.6,22.5-15.9,54-36,69.6-31.5,25.2-44.4,22.8-76.2,23.7H242c-23.4-1.8-48.3-5.7-67.8-33.9-16.8-24-30.9-37.5-30-71.1v-6.6c.9-22.2-4.8-15.3,6.6-37.5,2.7-5.1,19.5-32.1,25.2-37.5,17.1-16.2,42-23.7,59.1-25.5C256.05-.32,309.15-7.22,336.15,33.28Zm-15.9,113.4c2.7-12,8.4-15,6.6-26.7l-3.6-10.5c-.3-3.3.9-2.7,1.2-5.1a25.81,25.81,0,0,0-.3-4.8,51.09,51.09,0,0,1,.3-9c.6-5.7,1.2-7.8,1.8-9.6,2.7-6.3,4.2-6,1.8-9.3-1.8-7.2-9-11.1-14.7-16.2-5.1-5.1-5.1-2.7-6.9-8.7l-2.4-4.5c-.6-.6-3.3-3.9-3.6-4.2l-2.7-2.7c-1.5-1.2-3-3.6-4.2-5.1-1.8-1.8-3.6-3.6-4.8-5.1-3.6-3.3-2.7-1.8-3.6-4.8a12.56,12.56,0,0,0-3.6-4.8c-1.5-1.2-16.5-3.6-21-3.6-13.8-.9-35.1,4.8-47.7,18.6-2.7,4.2-1.2,3-5.1,6.9a39.1,39.1,0,0,0-5.7,6.6c-3.6,4.8-3,5.7-6.3,13.5a28.52,28.52,0,0,1-3.6,6.6,76.94,76.94,0,0,1-4.8,6.6c-3.6,6-3.3,8.1-5.1,13.5l4.5,3.6c.6,5.7-.3,18.6-.6,31.5v10.8c.6,6.3-.3,20.1,1.8,25.8,2.4,5.7,10.2,19.2,17.4,23.4a25.15,25.15,0,0,1,5.7,2.7l5.4.9c1.8,0,3.9,2.7,5.1,4.2,2.7,2.7,3.3,2.7,5.4,2.7,3,0,8.7.6,11.1,1.5,3.6,0,7.2,1.5,10.8,5.1,19.2,1.2,60.6-10.5,68.7-39.3Z"/><path d="M475,110.38c12.3,9.6,13.5,14.1,15.3,27.3l2.4,15.9c1.8,8.4,1.8,11.7,4.5,21,3.3,9.9,5.7,11.1,16.5,12.3,3.3,1.8,2.1,3,1.5,5.7-.3.9-2.7,5.1-3.6,6.6-3,5.7-5.1,9-9.6,12-5.1,3-11.7,4.5-17.4,1.5-11.7-6-24.9-38.7-27-54.3v-4.5c-.6-11.7,0-12.9-2.1-18-2.7-6.3-10.8-16.2-14.4-18.6-3.3-2.1-11.4-2.7-17.4-.3-5.1,2.4-5.1,2.4-5.7,7.5,0,.9,4.2,14.4,4.2,17.1-.3.9-.3,3-.6,4.2l-.9,4.8c-.3.6-.3,3-1.2,4.2-.9,1.8-2.7,2.1-3.9,3.6v1.8l6,1.5c0,1.5,0,20.1,2.1,26.4,2.7,7.2,3.3,6.3,9.6,10.5,3,2.1,4.5,2.7,6.6,4.5,3,2.1,4.2,3.6,3.3,7.2h-13.5c-1.8.6-2.4.3-7.2.3a5.93,5.93,0,0,0-3.3.6c-1.8,0-2.4-1.5-3.9-.9h-22.5c-14.1,1.5-12.6,3.6-26.7,0v-4.2c1.2-4.8,4.5-4.5,7.8-6.9,3.6-3,5.7-5.4,6.9-8.7.6-1.2,2.7-17.1,2.7-18.3V168l-.6-10.5v-9c0-2.1,1.2-4.5,1.2-6.9v-78c-.3-5.7.9-10.5-.6-24.3,0-2.1-.3-4.2-.3-6.3a13.13,13.13,0,0,1-1.2-6.3c-.6-2.1-.6-2.7-4.5-5.7l-6-3.9c-2.4-3-.9-9-.6-12.3l1.5-.6h1.2l1.2-.3a10.93,10.93,0,0,0,4.2-.6c2.7,0,5.7-.3,8.4-.3,1.8,0,4.5,0,8.7.3,4.2.6,3.9,1.2,8.7,1.2h6.9c19.8-2.1,61.2-.3,81.3,19.2,14.7,14.7,21.9,36.3,18,50.7-1.2,3.6-6.6,12.6-14.7,21.6a41.24,41.24,0,0,1-10.5,8.1c-2.1,1.2-7.8.6-10.8,4.8ZM422.15,60v5.4c.3,4.8-1.8,23.7,4.2,28.5,4.8,3.9,21.3,3,27.3,1.2a23.21,23.21,0,0,0,13.5-9.3c2.7-2.7,3.3-6.3,3.6-6.9a75.47,75.47,0,0,0,4.5-7.2c2.1-6-1.2-7.8-2.7-14.1-1.8-7.5,1.5-6.9-2.1-14.7-2.1-4.2-11.1-14.7-14.1-17.1s-10.8-3.9-17.7-5.1c-5.4-.9-7.5-2.1-12.3,3-3.9,4.5-4.2,8.7-6,18.3-.9,3.3-.9,5.7-2.1,9-.9,3.6-5.1,6-2.1,9Z"/><path d="M700.44,69c-1.8,2.4-5.1,3.3-9.3,1.8l-1.2-.6-.3-1.2-.9-1.2-.6-1.2c-2.7-1.5-2.1-1.2-4.2-3.6-2.7-2.7-4.5-7.8-6.6-11.4l-3.9-6.3c-.6-2.1-2.4-4.2-3-6-4.5-6.3-6-3.6-11.4-6-1.5-.6-4.5-3-6-4.2a23.37,23.37,0,0,1-6.3-1.2l-13.2-1.8c-5.4-1.2-23.4-6-29.4-3.6-7.5,3-22.2,9.9-28.5,21l-3.3,7.5c-1.5,1.5-4.5,5.1-5.4,7.8-1.5,4.2,0,3-.9,7.5,0,2.4-2.1,5.1-3.3,7.5-7.8,20.7-2.7,10.5-2.7,30.9v15.9c.3,14.7.9,48.3,21.6,61.5,12.9,8.1,53.7,17.1,66.3,11.1,7.8-3.3,10.2-12,11.1-19.5.9-6.3.3-14.4-5.4-18.9-4.2-3.6-3.3-.9-7.5-1.8-5.4-1.2-2.7-1.2-7.8-2.7V144q1.35-2.25,5.4-3.6c.6,0,6,.3,7.2-.3l48.6,1.5a8.23,8.23,0,0,1,3.6.6c1.5-.6,1.2-.9,3.3.6a99.81,99.81,0,0,1,0,16.5c-8.1,10.2-7.8,10.8-8.1,22.2,0,9.9.6,12.3-.9,22.2l-8.7,1.5-8.4,2.4c-3.9,1.2-6.6,2.7-8.4,2.7h-18.6c-3.3,0-7.5,2.7-11.1,2.7H629c-32.1,1.8-52.2,2.1-84-30.3-20.4-20.7-25.2-49.8-26.4-71.4v-10.5a89.59,89.59,0,0,1,.6-11.4,9.25,9.25,0,0,1,.3-2.7,5.41,5.41,0,0,1,.6-3,5.64,5.64,0,0,1,1.5-3.3l1.5-1.2,1.2-1.5c1.2-33.6,35.1-61.2,56.1-68.1,24.3-7.8,27-9.3,47.4-7.8,31.8,2.4,18-.9,47.4,10.5l12.9,5.4,6,3c3,1.2,3.9.9,6.3,4.2Z"/><path d="M765,4.78l3.6.9c2.4,0,5.4.9,8.1.9a7.65,7.65,0,0,1,3.9-.6,27.86,27.86,0,0,1,3.9-1.2c2.1,0,5.4-.9,8.1-.9,11.1-.9,20.4,1.8,31.5,3l2.1,1.2c13.2-2.1,20.4-5.1,29.7,5.4,3.3,3.6,3.9,11.1,4.5,18,.6,5.7.6,7.8.3,8.7,0,2.7,0,6.9-5.4,8.7h-1.5c-9.9-12-5.1-12.3-20.7-20.4-9.3-5.1-15.3-9.9-25.5-8.7,0,.3-5.1,2.7-6,2.7a11.9,11.9,0,0,1-6.3-3c-3.9-1.8-7.5-3.3-12.6-3-4.2.3-9.6.6-11.7,6-1.2,3,1.8,17.1,1.5,20.4,0,2.7.3,2.1-.3,5.1-1.2,3.3-1.5,2.1-1.5,5.4a29,29,0,0,0-1.5,10.2l2.1,4.8c.9,4.2-1.8,22.2,3.6,26.7,1.2.9,9.6,3.3,11.1,2.7,2.4-1.5,9-4.2,11.7-4.2l4.5-3c.6-1.8,1.2-2.1,3.6-4.2a16.14,16.14,0,0,1,6.3-9c2.7,0,7.5-1.5,9.3,4.5.3.9,1.2,3.3.9,9,0,1.5.9,4.2-2.7,9.3V105c2.1,3.6,2.1,2.4,2.1,6.6,0,2.4-.3,4.8-.3,6.9,0,1.5.3,12.6-.6,14.1-1.2,1.5-3.3,2.7-6.6,2.4-1.5-.9-1.8-.6-3-.6a10.12,10.12,0,0,1-3.3-3c-.6-2.1-2.1-3.6-3.3-6.9-6.3-7.2-6.9-2.4-13.5-5.1a32,32,0,0,1-6.9-4.8,15.69,15.69,0,0,1-6.9-3c-1.8-.6-8.4.3-10.2,2.1,1.2,11.1,2.4,9.6,2.7,17.1v8.7c-2.1,3.3-2.1,3.9-2.1,8.7v9.6c1.2,8.4-2.1,27.3,6.3,36,4.2,3.9,17.1,7.2,23.1,5.7h1.2l1.2-.9,1.2-.3,1.2-.3c2.1-2.1,2.4-2.4,5.1-2.4h9.9c6-4.5,7.8-6,9.6-8.1,4.2-2.4,4.8-4.8,6.6-10.2,1.8-3,3.6-7.2,5.7-10.5,3.3-3.9,6.6-3.9,10.5-5.1l3.3,2.1v8.4c0,9.3-.9,10.5-.3,17.4v16.8c-1.2,3-.3,2.7-3.9,5.4-6,.9-8.7,1.5-12.3,1.2-1.2,0-10.8-2.7-12.6-2.7H819c-5.1,0-7.8,1.8-15.6,1.8h-9.3l-1.5.9H789l-1.8-1.2a10.4,10.4,0,0,1-6.9.3l-24.6-1.5c-.6,0-2.1-.3-3.3-.3h-1.5l-1.8,1.5h-4.2c-17.1.3-17.7.6-35.1-3v-5.1c23.4-14.7,21.3-20.4,22.2-45v-18.6c0-1.2,0-8.1.6-9.6V120c0-3.6.3-3,1.8-6.3l-1.8-19.8a68.63,68.63,0,0,1,.3-9.3l1.5-9,3.6-13.5c.3-2.7-2.1-15.3-2.4-18.6-1.2-8.1-.9-12.6-6.6-18.9-3.9-3-5.1-6-9.6-7.8-3.6-2.7-6.6-6.3-6.6-9.6a5.4,5.4,0,0,1,2.7-1.8c1.8-.9,1.5,0,3-1.2,3.6-.9,2.7,0,6.3-.3,1.8-.9,3.6-.9,6-.9a7.29,7.29,0,0,1,3.3.9,4.27,4.27,0,0,1,3,.6h6c1.2,0,4.8,1.5,6.3,2.7,6,1.8,6,0,11.7-2.4Z"/><path d="M1003.57,30.58c4.2,6.3,5.7,9,5.7,14.4a71.19,71.19,0,0,1-.3,7.2c-.6,1.5.3,4.2-3.6,6.9h-3l-3-1.5c-.6-.3-2.7-1.8-5.4-5.4a27.48,27.48,0,0,1-3.6-6c0-1.5-1.2-3.9-3.3-6.3-2.7-.9-7.5-4.2-10.2-5.7-.9-.9-3.3-3-4.5-4.2l-1.2-.9-1.5-1.5-.9-1.2-1.5-1.2c-5.4-3.9-11.7-4.8-20.4-5.4-8.1-.3-25.2,0-34.2,11.4-3.6,5.1-6.6,20.7-5.1,27,3,12.9,33.6,25.2,36.6,27l6,3a31.25,31.25,0,0,0,5.4,3l8.1,4.2c16.8,1.8,20.1,6.9,32.1,24.3,3.9,3.9,5.1,7.2,9,10.8,1.5,2.4,2.1,3.9,4.5,11.7,2.4,8.1,3.6,12.6,1.2,22.2-2.4,12.9-12.3,30.9-27.3,38.1-11.4,5.7-22.2,6.6-45.9,10.2-28.2,4.2-17.7,2.4-45.9-5.4l-6-1.5c-23.4-4.2-18.6-15-19.2-37.8v-11.4l.6-6c3,0,9.6-.6,12.3,1.5a20.07,20.07,0,0,1,4.2,5.7c1.2,3.6,0,2.4,3.9,6l8.1,7.5c11.1,8.7,13.8,17.1,23.7,20.4,2.1.9,23.1,3.3,25.2,3.3,12.6-1.5,22.8-3.6,30-19.5,3.9-7.8.6-17.7,0-26.1l-3.3-3.9a49.35,49.35,0,0,0-5.7-3,36.11,36.11,0,0,0-6.3-2.7c-3-1.8-2.4-2.7-5.4-5.1a38.65,38.65,0,0,0-6-4.5c-14.1-9.3-15.6-5.7-20.1-16.5h-9.3l-9-1.8c-9.3-.9-10.8-2.7-18.9-9-3,1.2-6-2.7-6.9-5.1l-3-8.4c-3.3-7.5-6.6-9.6-7.2-17.1-.6-3,1.8-23.1,2.7-25.8,0,0,15-26.1,15.6-26.7,17.7-19.5,47.4-18.6,72.9-18.3h5.1c9.3.3,23.4,3.6,33.3,6.6C1005.37,21.28,1005.07,17.68,1003.57,30.58Z"/><path d="M85.6,257.42c5.2,8,8.53,9.6,11.86,17.33.14.4,2.94,7.06,2.94,8.8a26.13,26.13,0,0,1-.54,4.4,20.56,20.56,0,0,0-.26,4.4v3.86c-.27,10-7.07,24-16,30.93-14,11.2-19.73,10.13-33.86,10.53h-6c-10.39-.8-21.46-2.53-30.12-15.06C6.15,311.94-.11,305.94.29,291v-2.93c.4-9.86-2.14-6.8,2.93-16.66,1.2-2.27,8.66-14.27,11.2-16.67,7.59-7.19,18.66-10.53,26.26-11.33C50,242.49,73.6,239.42,85.6,257.42Zm-7.06,50.39c1.2-5.33,3.73-6.67,2.93-11.87l-1.6-4.66c-.13-1.47.4-1.2.53-2.27a11.72,11.72,0,0,0-.13-2.13,23.29,23.29,0,0,1,.13-4,18,18,0,0,1,.8-4.26c1.2-2.8,1.87-2.67.8-4.14-.8-3.2-4-4.93-6.53-7.2-2.27-2.26-2.27-1.2-3.07-3.86l-1.06-2c-.27-.27-1.47-1.73-1.6-1.87l-1.2-1.2a15.07,15.07,0,0,1-1.87-2.26,29.81,29.81,0,0,1-2.13-2.27c-1.6-1.47-1.2-.8-1.6-2.13a5.47,5.47,0,0,0-1.6-2.13C60.67,249,54,248,52,248c-6.13-.4-15.6,2.13-21.2,8.26-1.2,1.87-.53,1.33-2.26,3.07A17,17,0,0,0,26,262.22c-1.6,2.13-1.33,2.53-2.8,6a13.05,13.05,0,0,1-1.59,2.93,31.87,31.87,0,0,1-2.14,2.93c-1.6,2.67-1.46,3.6-2.26,6l2,1.6c.26,2.53-.14,8.27-.27,14v4.8c.27,2.8-.13,8.93.8,11.46s4.53,8.53,7.73,10.4a11.22,11.22,0,0,1,2.53,1.2l2.4.4c.8,0,1.74,1.2,2.27,1.86,1.2,1.2,1.47,1.2,2.4,1.2a19.19,19.19,0,0,1,4.93.67,6.71,6.71,0,0,1,4.8,2.27c8.53.53,26.93-4.67,30.53-17.47Z"/><path d="M145.72,245h8.67l5.86.27h1.87c.13,0,5.86-.93,6.26-.93a7.16,7.16,0,0,1,2.94.26,5.62,5.62,0,0,1,3.06,2.14l-.93.8c0,1.6-.27,3.19-.27,4.79,0,1.87-.4,2.8-1.2,4.94a3.06,3.06,0,0,0,.4,2.4V267a4.43,4.43,0,0,1-2.93,1.06,4.58,4.58,0,0,1-2.93-1.73l-1.33-4.13a9.39,9.39,0,0,0-1.6-1.87l-.27-.53-.53-.53-.14-.4-.26-.54c-2-2.8-3.47-3.46-7.6-5.2-4.4-1.73-14.93-2.93-19.2.4-1.6,1.2-2.53,2.94-2.8,6.14,0,1.06-.13,2-.13,3.06-.27,1.6-.67,1.47-1.2,3.33V268c-.4,2.53,1.07,12.13,1.87,15.06a36,36,0,0,0,9.06.27c1.87,0,2.53.53,4.53-.8.54-.93.54-1.2,1.87-1.73l.53-.54.4-.66c.14-.13.27-.8.54-1.2.53-1.07,1.19-1.47,2.79-1.47a8.24,8.24,0,0,1,3.07.27c.93,4.27.67,6.13.27,10.53v3.2c0,.93.26,4.93.26,6.53v4.93l-.93,1.07c-2.53,0-2.4.13-3.87-1.47a18.23,18.23,0,0,1-4-3.2c-.94-2.4-.67-1.46-2.94-3.59a17.07,17.07,0,0,0-4-3.07c-1.46-.67-5.73-1.07-7.46.13-2,1.47-2.13,9.33-2.53,11.33l-1.07,8.27c3.6,9.73-.93,11.2,4.13,16.53a32.51,32.51,0,0,0,3.87,3.06c1.6,1.6,1.33,2.27,1.2,4a6.46,6.46,0,0,1-3.47.67h-1.86c-5.6-.13-6.94.27-9.47,0h-4.8c-7.06.67-3.73.93-11.06-.8V333.8a24.21,24.21,0,0,0,4.93-6.66c.4-.67,1.6-2.67,1.87-3.34a17.34,17.34,0,0,0-.27-3.59v-7.07c.13-.93-.13-5.46,0-7.86.27-3.34,1.33-7.47,1.2-8.14l-.8-7.86c0-2.4.27-6,.53-8.67l1.34-7.19c.26-2.14-.8-9.6-1.07-12v-4.13a10.08,10.08,0,0,0-2.67-6.27c-1.2-1.33-2-1.2-3.06-2.26s-1.87-1.74-1.2-3.2a20.28,20.28,0,0,1,4.13-.54c1.2,0,2.8-.93,4.27-.93h3.46c5.73.8,8.13-.53,14.4,2.27C139.59,245.82,141.46,245,145.72,245Z"/><path d="M281.37,246.05h21.24l14.38.66h4.58c.33,0,14.38-2.29,15.36-2.29a17.47,17.47,0,0,1,7.19.65c1.63,0,6.21,2.94,7.52,5.23l-2.29,2c0,3.92-.65,7.85-.65,11.77,0,4.57-1,6.86-2.95,12.09-.65,2.29,0,3.92,1,5.88v18c-2,2-5.22,2.61-7.19,2.61a11.31,11.31,0,0,1-7.19-4.25l-3.26-10.13a22.9,22.9,0,0,0-3.93-4.57l-.65-1.31L323.2,281l-.32-1-.66-1.31c-4.9-6.86-8.49-8.49-18.63-12.74-10.78-4.25-36.6-7.19-47.06,1-3.92,2.94-6.21,7.19-6.86,15,0,2.62-.33,4.9-.33,7.52-.65,3.92-1.63,3.59-2.94,8.17v4.57c-1,6.21,2.61,29.75,4.58,36.94,8.17,1.63,18.62,1,22.22.65,4.58,0,6.21,1.31,11.11-2,1.31-2.29,1.31-2.94,4.58-4.25l1.3-1.31,1-1.63c.32-.33.65-2,1.3-2.94,1.31-2.62,2.94-3.6,6.87-3.6,3.26,0,3.92-.32,7.51.66,2.29,10.45,1.64,15,.66,25.81v7.85c0,2.29.65,12.09.65,16v12.1l-2.29,2.61c-6.21,0-5.88.33-9.48-3.6-5.88-3.92-8.49-6.21-9.8-7.84-2.29-5.88-1.63-3.59-7.19-8.82-5.88-5.56-9.15-7.19-9.81-7.52-3.59-1.63-14.05-2.62-18.3.33-4.9,3.59-5.23,22.87-6.21,27.78l-2.61,20.26c8.82,23.86-2.29,27.45,10.13,40.53,1.63,1.63,8.5,7.19,9.48,7.51,3.92,3.92,3.27,5.56,2.94,9.81-2.29,1.63-6.21,1.63-8.5,1.63H252c-13.73-.33-17,.65-23.21,0H217c-17.32,1.63-9.15,2.29-27.13-2v-3.59c4.25-4.25,6.54-6.54,12.09-16.35,1-1.63,3.92-6.53,4.58-8.17.33-2.28-.33-6.21-.66-8.82V413.06c.33-2.29-.32-13.4,0-19.28.66-8.18,3.27-18.31,2.95-19.94l-2-19.28c0-5.89.65-14.71,1.3-21.25l3.27-17.64c.65-5.23-2-23.54-2.61-29.42V276.12c-.66-6.54-2.95-11.77-6.54-15.36-2.94-3.27-4.9-2.94-7.52-5.56s-4.57-4.25-2.94-7.84c1.64-.65,8.17-1.31,10.13-1.31,2.94,0,6.87-2.29,10.46-2.29h8.5c14.05,2,19.93-1.3,35.3,5.56C266.34,248,270.91,246.05,281.37,246.05Z"/><path d="M413.57,247.36l2.62,8.17,6.21,17.65c.65,2,1.3,3.27,1.3,4.9l3.27,9.48c.66,1.63,2.29,4.57,2.94,7.19l5.56,15.36c.65,2,3.59,9.15,4.25,11.44l5.88,22.22c1.31,4.58,1.31,2.94,2,7.85l2,8.49c1,3.27,2,3.92,3.6,7.85,1,2.94,2,5.88,2.94,8.49l8.5,20.59.32,1.31,1,1.63c.33,2,0,1.31,1.31,3.27l6.54,19.94c2.28,7.52,1.3,4.25,5.88,11.76,1.31,2,3.59,9.16,5.88,12.1,1,1.63,9.81,7.51,11.44,8.82,5.56,5.88,3.27,5.56,2.94,12.09-9.47,2.94-19.28,3.6-28.76,3.93H442c-2.29,0-5.89-1-8.5-1h-8.17c-1.31-3.26,0-6.53,5.23-8.82,2.61-1.31,6.86-.33,10.45-4.57,5.56-7.19,0-19.94-4.24-33l-8.5-19-2.62-8.5-2.28-4.25-1-4.24c-1.64-5.89-3.27-11.12-11.44-14.71-3.93-1.63-38.24-1.63-43.14,1-3.93,2.29-5.56,5.56-7.85,13.4-.65,2-1,4.9-2,7.19-1.63,3.59-1.63,2.61-4.25,7.19l-2.61,10.46c-5.23,14.05-11.11,25.49-6.21,32.68,3.59,3.6,8.5,5.23,10.46,10.13,4.25,6.86,2.61,6.54,2.94,13.4h-18c-14.38.33-32.68,3.27-51.63-6.86,1-2.94.65-4.9,4.9-7.52,1.63-1.31,5.55-3.27,7.84-4.9,6.21-4.25,10.46-7.85,14.71-13.73l2.61-4.9c5.56-9.15,2.29-5.23,9.15-15.36,3.6-4.9,9.48-9.48,11.44-15l19-51L360,344.1l4.25-9.15.33-1.64,1.3-2,.33-2,1-2,15-36.6c2.28-5.89,3.59-9.15,3.92-9.81L390,272.2c4.58-11.11,3.92-30.07,5.88-32,3.92-4.25,12.09-1.31,16-1A24,24,0,0,1,413.57,247.36ZM392,309.78c-5.56,17.65-13.4,28.44-11.76,46.08a168.81,168.81,0,0,0,27.77.66l2-2V347c-3.6-16-3-11.77-5.23-27.13-.33-2.94-1.31-11.44-1.31-13.72a23.38,23.38,0,0,0,1.31-6.54c0-2.94-.33-4.9-3.27-5.88-5.88,2-5.23,3.27-7.19,7.84Z"/><path d="M570.92,294.09V399.66c0,2.29,1,17,1,17.65v14.05c1,13.4,2,19.94,15,34v3.59c-9.47,1.31-22.22,1-29.08.33H550a26.41,26.41,0,0,0-6.86,1.63c-1.64,0-4.58.33-7.19.33-2.29.33-5.56.33-13.73-.33-.32-.32-5.55-3.59-6.21-4.9a7.73,7.73,0,0,1-1-6.86c6.21-4.58,5.89-6.21,10.79-11.44,4.9-5.88,5.55-6.21,6.53-12.42,0-.33,1.64-24.51,1.64-25.16V394.43c0-2.29.32-4.9.32-7.52v-7.84l-1.63-20.27V350c0-2.94-.33-6.21-.33-9.15L534,315.67c-.66-9.48.65-42.17-10.79-51.32-3.92-2.94-13.4-3.59-13.4-10.78-.32-4.25.66-3.92,4.58-6.21,11.76-7.84,24.84,1,37.26,0l10.45-2.62a44.82,44.82,0,0,1,11.44,0c1.31.66,9.48,1.31,10.79,1.31,5.88,1.64,5.88,3.92,5.88,9.15C569.94,278.08,570.26,271.22,570.92,294.09Z"/><path d="M656.63,241.48c36.61,14.38,28.11,2.28,64.71,2.28l3.93,1.31,2.61-1.31c15,.33,10.13,1.64,25.17,5.23,2.28-2.94,7.51-2,10.78-2.94h19.94V258.8c-1,7.52-1.64,4.57-4.9,11.76a33.08,33.08,0,0,0-2.62,11.77c0,2,.33,3.92.33,5.88,0,2.62-1,3.27-2,6.54l-8.83,1.63-3.27-6.86c-1.3-2.94-1.63-5.23-2.28-6.54l-1.64-5.55c-1.63-2.29-1.31-6.87-5.23-6.87-3.27-2.94-2-3.59-6.53-6.21-2-.65-6.87-2.61-8.5-2l-2,1.64h-5.56c-2.61-2.62-8.17-4.25-11.44-2.94l-2-1.31h-3.59c-2,2.29-2.29,6.21-2.29,8.5a50.59,50.59,0,0,0-.65,8.82v57.19c.32,1.64-.66,8.17-.66,9.81v9.48c0,1-.65,6.21-1,7.84,0,2.61-.65,5.56-.65,8.5.65,1.3.65,1.63.65,3.59a20.39,20.39,0,0,0,1,4.25l1,8.5v6.21c0,2.61.33,6.53.66,13.72v23.54c-.33,18.95,5.55,19.28,25.16,33.66v9.8c-2,0-4.25-.65-6.86-.65-2.29,0-6.87-.65-8.17-.65-3.27-2.29-2.62-2.62-7.52-2.62H678.2c-12.09-.33-16.66,1-24.83,2.94l-4.91-8.49c28.11-27.13,20.92-13.4,22.55-46.09V373.19c0-2.62-.65-6.54-.65-9.81V344.1a25.26,25.26,0,0,1,2-7.52c0-2,.33-5.23.33-7.84a53,53,0,0,0-1-8.17c0-1-1.31-6.21-1.64-7.85v-4.9c0-14.71,3.27-11.76-.32-26.8-2-7.19.65-5.88-5.89-13.4-2.61-2.94-5.23-5.23-6.21-6.21-2-1.63-4.9-2.94-6.86-2.94a24,24,0,0,1-9.48,5.56l-9.15,3.26c-5.23,2.62-4.25,1-7.51,6.21,0,3.6-1.64,6.21-4.91,8.5-3.92,2.29-2.61,1.64-4.57,4.9-1.31,1.64-3.92,4.58-5.89,5.56-7.19,0-6.86-1-6.86-7.84,0-3.6,1-6.87,1-10.13V264.35c-.33-11.11-1-11.76-3.27-20.59,12.1-7.51,12.42-5.55,25.5-.65l5.88,2c7.19.66,4.25-2,11.76-2.94,2.62-.33,8.83.33,11.44.33Z"/><path d="M863.59,254.88c-3.6,3.26-4.58,2.61-6.87,4.9-2.61.65-3.92,3.59-4.57,5.88-.66,1-1.31,2.62-1.64,7.19-2.94,22.88,3.6,12.09-5.55,35l1.3,1.64,2,1.3a9.22,9.22,0,0,1,1.3,3.92c-.32,4.91,1,2.95-.65,8.17-1,7.85,0,9.81,1.31,16h9.15l4.57,2.29c10.46,0,18.3-.66,28.44,2.61,16,1,10.45-.33,24.51,4.25l6.21-3.92c2,0,6.86,1.63,9.48,2.61.65,0,2-1,5.22-1h1.31l1,.66,1.31-.66h1.31c2-1.63,3.59-1.31,5.23-3.92l2.61-5.88a41.49,41.49,0,0,1,2-5.89s1.64-2.61,2-2.94c1.31-1.3,1.64-1.3,2.29-2.94v-1.63c-7.52-18.3,0-43.47-1-46.74-2.29-7.84-6.21-11.76-16.34-18.63v-5.88a10.35,10.35,0,0,1,7.52-2.94H958c1,0,8.5-.65,10.46-1h28.76c3.59,0,8.17.65,12.42.65v4.58c-2.62,3.92-2.29,3.92-8.5,8.5l-1.31.65-1.31.65L996.28,264l-1.31.32h-1.31l-1.31-.65-1.3.65c0,7.85,2.28,19,.32,26.8-2.61,13.4-1.3,17,0,27.13v5.23c1,8.5,1.64,15.69,1.31,17-.33,2.94-2,5.23-2.94,8.17-2.29,3.27-1.64,3.93-1.64,8.83C992,364,992,361.09,992,368V389.2c0,1,0,1-.66,2.94,0,1.64.33,1.31-.32,3.27v12.42c.65,12.74-2.29,38.89,12.09,51,2.29,2,5.23,1,8.17,4.91.65,2,1.63,6.53-.65,8.49h-6.54a19.3,19.3,0,0,0-7.19-2,27.41,27.41,0,0,0-7.19.33c-3.92,0-5.23,1-7.19,1.63-6.86.33-6.21-2-13.73-2.61h-7.19c-.32,0-5.88-2.29-7.19-2.29-2.94-.33-3.59,1-6.53,1H941l-4.57-4.9c0-3.27,1-8.5,6.53-8.5,3.6-2.29,8.5-5.23,8.5-9.8,4.58-11.12-2.94-18.31,4.25-33.67-5.88-18.63-4.25-16-2.94-33.66-1.64-2.94-2.94-5.23-6.21-7.19-4.25-4.57-4.25-5.23-7.52-6.21-28.1,0-23.2,4.25-45.75-1.63L891,364c-3.27,0-5.56-1.3-9.15,0l-9.15.66c-6.54,0-12.1-4.58-18.63,0-5.88,4.25-7.19,30.07-7.52,35.29l-3.27,4.58,3.93,1c0,6.86-.33,14.38.32,24.19s1,16.34,11.77,23.2c1,1,6.21,4.25,7.84,4.25,2,1.31,5.56,4.25,4.58,6.54l-1.64,1.63h-5.23l-2.94-1a17.8,17.8,0,0,1-7.19,1.63c-3.59,0-4.25.33-7.51,1.64-8.17,2.61-9.48,2-14.38,1.63h-6.54c-3.6,0-7.52-1-9.15-2.61-2-1-1.64-1.31-4.58-1.31l-1.31.65-1.3,1.31a6.5,6.5,0,0,1-2.29.65c-8.5,2.29-11.11-.65-19.28-1.63-2.29-3.27-2-6.86-1-10.13,2.28-4.25,5.88-4.58,9.15-7.19,10.13-7.19,9.8-10.46,11.76-21.25,1.64-8.17,3.6-12.42,2.62-23.2v-18.3c-.66-14.71-2.29-14.71-1.64-26.8l2-23.21c0-2-.65-4.9-.65-7.19V290.5c-.33-3.92-1-14.38-2-19.94-.33-2.94-.33-6.86-3.27-9.8-2.61-1.31-1.63-.65-4.57-3.6l-2.62-.65-1-1.31-1.31-.32c-4.57-3.27-5.88-7.52-2.94-11.77l7.52,1.63c3.59-1,8.82-2.94,12.42-2.61,5.23.65,7.19,3.92,13.07,3.27l11.11-2c1.64,0,5.89-.66,7.19-1.64a20.07,20.07,0,0,1,7.85,0c1.3.33,2.61.33,3.92.66l3.92,2c1,0,5.23.32,7.84,3.59C866.53,251.61,866.85,251.61,863.59,254.88Z"/></g></g></svg>