<svg xmlns="http://www.w3.org/2000/svg" viewBox="0 0 2563 288.41"><g id="Layer_2" data-name="Layer 2"><g id="Layer_1-2" data-name="Layer 1"><path d="M111.67,9.89H137.6l17.55.79h5.58c.4,0,17.55-2.79,18.74-2.79a21.24,21.24,0,0,1,8.78.8c2,0,7.58,3.59,9.17,6.38l-2.79,2.39c0,4.79-.8,9.58-.8,14.36,0,5.59-1.19,8.38-3.59,14.76-.79,2.79,0,4.79,1.2,7.18V75.69c-2.39,2.4-6.38,3.2-8.77,3.2a13.83,13.83,0,0,1-8.78-5.19l-4-12.36c-.79-1.2-1.19-2-4.78-5.59l-.8-1.59-1.6-1.6-.4-1.19-.79-1.6c-6-8.38-10.37-10.37-22.74-15.55C125.63,29,94.12,25.44,81.36,35.41,76.58,39,73.78,44.19,73,53.76c0,3.19-.4,6-.4,9.17-.8,4.79-2,4.39-3.59,10v5.59c-1.2,7.57,3.19,36.29,5.58,45.06,10,2,22.74,1.2,27.12.8,5.59,0,7.58,1.6,13.56-2.39,1.6-2.79,1.6-3.59,5.59-5.19l1.59-1.59,1.2-2c.4-.39.8-2.39,1.59-3.58,1.6-3.2,3.59-4.39,8.38-4.39,4,0,4.79-.4,9.17.8,2.79,12.76,2,18.34.8,31.5v9.58c0,2.79.8,14.75.8,19.54v14.75l-2.79,3.2c-7.58,0-7.18.39-11.57-4.39-7.18-4.79-10.37-7.58-12-9.57-2.79-7.18-2-4.39-8.77-10.77-7.18-6.78-11.17-8.78-12-9.18-4.39-2-17.15-3.19-22.34.4C69,155.46,68.6,179,67.4,185L64.21,209.7c10.77,29.12-2.79,33.5,12.37,49.46,2,2,10.37,8.77,11.56,9.17,4.79,4.79,4,6.78,3.59,12-2.79,2-7.58,2-10.37,2H75.78c-16.75-.4-20.74.8-28.32,0H33.1c-21.14,2-11.16,2.79-33.1-2.39v-4.39c5.18-5.19,8-8,14.76-19.94,1.19-2,4.78-8,5.58-10,.4-2.79-.4-7.58-.8-10.77V213.69c.4-2.79-.4-16.35,0-23.53.8-10,4-22.34,3.59-24.33L20.74,142.3c0-7.18.8-18,1.59-25.92l4-21.54c.8-6.38-2.39-28.72-3.19-35.9V46.58c-.8-8-3.59-14.36-8-18.75-3.59-4-6-3.59-9.18-6.78S.4,15.87,2.39,11.48c2-.8,10-1.59,12.37-1.59,3.59,0,8.37-2.79,12.76-2.79H37.89C55,9.49,62.22,5.5,81,13.88,93.33,12.28,98.91,9.89,111.67,9.89Z"/><path d="M446.89,47c15.55,23.93,25.52,28.71,35.49,51.85.4,1.19,8.78,21.13,8.78,26.32a78.62,78.62,0,0,1-1.6,13.16,62.09,62.09,0,0,0-.8,13.16V163C488,193,467.63,234.83,440.9,255.57c-41.87,33.5-59,30.31-101.3,31.51h-18c-31.11-2.4-64.21-7.58-90.13-45.07-22.34-31.91-41.08-49.86-39.89-94.53v-8.77c1.2-29.51-6.38-20.34,8.78-49.85C204,82.08,226.33,46.18,233.91,39c22.73-21.54,55.84-31.51,78.57-33.9C340.4,2.31,411-6.86,446.89,47ZM425.75,197.74c3.59-16,11.17-19.94,8.77-35.5l-4.78-14c-.4-4.39,1.19-3.59,1.59-6.78a34.2,34.2,0,0,0-.4-6.38,67.67,67.67,0,0,1,.4-12c.8-7.58,1.6-10.37,2.39-12.77,3.59-8.37,5.59-8,2.4-12.36-2.4-9.57-12-14.76-19.55-21.54-6.78-6.78-6.78-3.59-9.17-11.56l-3.19-6c-.8-.79-4.39-5.18-4.79-5.58l-3.58-3.59c-2-1.59-4-4.79-5.59-6.78-2.39-2.39-4.78-4.79-6.38-6.78-4.79-4.39-3.59-2.39-4.79-6.38a16.64,16.64,0,0,0-4.78-6.38c-2-1.6-21.94-4.79-27.92-4.79C328,17.46,299.72,25,283,43.39c-3.59,5.58-1.6,4-6.78,9.17a51.88,51.88,0,0,0-7.58,8.78c-4.79,6.38-4,7.57-8.38,17.94-2.39,5.59-4.38,8.38-4.78,8.78a101.74,101.74,0,0,1-6.39,8.77c-4.78,8-4.38,10.77-6.78,18l6,4.79c.79,7.57-.4,24.72-.8,41.87V175.8c.8,8.38-.4,26.72,2.39,34.3,3.19,7.58,13.56,25.53,23.13,31.11a33.36,33.36,0,0,1,7.58,3.59l7.18,1.2c2.39,0,5.19,3.59,6.78,5.58,3.59,3.59,4.39,3.59,7.18,3.59,4,0,11.57.8,14.76,2,4.78,0,9.57,2,14.36,6.78,25.52,1.6,80.56-14,91.33-52.24Z"/><path d="M631.41,149.48c16.36,12.76,18,18.74,20.34,36.29l3.19,21.14c2.4,11.17,2.4,15.55,6,27.92,4.38,13.16,7.58,14.76,21.93,16.35,4.39,2.39,2.79,4,2,7.58-.4,1.2-3.59,6.78-4.79,8.77-4,7.58-6.78,12-12.76,16-6.78,4-15.56,6-23.13,2-15.56-8-33.11-51.45-35.9-72.19v-6c-.8-15.56,0-17.15-2.79-23.93-3.59-8.38-14.36-21.54-19.15-24.73-4.38-2.79-15.15-3.59-23.13-.4-6.78,3.19-6.78,3.19-7.58,10,0,1.2,5.59,19.15,5.59,22.74-.4,1.19-.4,4-.8,5.58l-1.2,6.38c-.39.8-.39,4-1.59,5.59-1.2,2.39-3.59,2.79-5.19,4.78v2.39l8,2c0,2,0,26.72,2.79,35.1,3.59,9.57,4.39,8.37,12.77,14,4,2.79,6,3.58,8.77,6,4,2.79,5.58,4.78,4.39,9.57H571.19c-2.39.8-3.19.4-9.57.4a7.86,7.86,0,0,0-4.39.8c-2.39,0-3.19-2-5.19-1.2H522.13c-18.74,2-16.75,4.79-35.49,0v-5.58c1.59-6.39,6-6,10.37-9.18,4.78-4,7.57-7.18,9.17-11.56.8-1.6,3.59-22.74,3.59-24.33v-5.59l-.8-14v-12c0-2.79,1.6-6,1.6-9.17V87.26c-.4-7.58,1.19-14-.8-32.31,0-2.79-.4-5.58-.4-8.37a17.43,17.43,0,0,1-1.6-8.38c-.79-2.79-.79-3.59-6-7.57l-8-5.19c-3.2-4-1.2-12-.8-16.35l2-.8h1.6l1.59-.4a14.7,14.7,0,0,0,5.59-.79c3.59,0,7.57-.4,11.16-.4,2.4,0,6,0,11.57.4,5.58.79,5.18,1.59,11.57,1.59h9.17c26.32-2.79,81.36-.4,108.08,25.53,19.55,19.54,29.12,48.25,23.93,67.4-1.59,4.78-8.77,16.75-19.54,28.71-4.79,4.79-9.17,8.38-14,10.77-2.79,1.6-10.37.8-14.36,6.38Zm-70.19-67v7.18c.4,6.38-2.39,31.51,5.58,37.89,6.38,5.19,28.32,4,36.3,1.6A30.88,30.88,0,0,0,621,116.77c3.59-3.59,4.39-8.37,4.79-9.17.8-1.2,5.18-7.58,6-9.57,2.79-8-1.59-10.37-3.59-18.75-2.39-10,2-9.17-2.79-19.54C622.64,54.16,610.67,40.2,606.68,37s-14.35-5.19-23.53-6.78c-7.17-1.2-10-2.79-16.35,4-5.18,6-5.58,11.56-8,24.32-1.2,4.39-1.2,7.58-2.8,12-1.19,4.79-6.78,8-2.79,12Z"/><path d="M931.19,94.44c-2.39,3.19-6.78,4.39-12.36,2.39l-1.6-.8-.4-1.59-1.19-1.6-.8-1.59c-3.59-2-2.79-1.6-5.58-4.79-3.59-3.59-6-10.37-8.78-15.15l-5.18-8.38c-.8-2.79-3.19-5.58-4-8-6-8.37-8-4.78-15.16-8-2-.8-6-4-8-5.59-1.6,0-6.78-.79-8.38-1.59l-17.55-2.39c-7.18-1.6-31.11-8-39.08-4.79-10,4-29.52,13.16-37.89,27.92l-4.39,10c-2,2-6,6.78-7.18,10.37-2,5.58,0,4-1.2,10,0,3.19-2.79,6.78-4.38,10-10.37,27.52-3.59,14-3.59,41.08V163c.4,19.54,1.19,64.21,28.71,81.76,17.15,10.77,71.39,22.73,88.15,14.76,10.37-4.39,13.56-16,14.75-25.93,1.2-8.37.4-19.14-7.18-25.12-5.58-4.79-4.38-1.2-10-2.4-7.18-1.59-3.59-1.59-10.37-3.59v-8.37c1.2-2,3.59-3.59,7.18-4.79.8,0,8,.4,9.57-.4L930,191a11,11,0,0,1,4.78.79c2-.79,1.6-1.19,4.39.8.8,11.57.4,13.56,0,21.94C928.4,228.05,928.8,228.85,928.4,244c0,13.16.8,16.35-1.2,29.52l-11.56,2-11.17,3.19c-5.19,1.6-8.77,3.59-11.17,3.59H868.57c-4.38,0-10,3.59-14.75,3.59H836.27c-42.68,2.39-69.4,2.79-111.67-40.28-27.13-27.52-33.51-66.21-35.1-94.93V136.72a118.82,118.82,0,0,1,.8-15.16,12.28,12.28,0,0,1,.4-3.59,7.27,7.27,0,0,1,.79-4,7.46,7.46,0,0,1,2-4.38l2-1.6,1.6-2c1.59-44.67,46.66-81.37,74.58-90.54C804,5.1,807.55,3.11,834.67,5.1c42.28,3.19,23.93-1.2,63,14l17.15,7.18,8,4c4,1.59,5.18,1.19,8.37,5.58Z"/><path d="M1017,9.09l4.78,1.2c3.19,0,7.18,1.19,10.77,1.19,2-.8,2.39-.8,5.18-.8,2.8-1.19,2.8-.79,5.19-1.59,2.79,0,7.18-1.2,10.77-1.2,14.76-1.19,27.12,2.4,41.88,4l2.79,1.6c17.55-2.8,27.12-6.78,39.48,7.17,4.39,4.79,5.19,14.76,6,23.94.8,7.57.8,10.36.4,11.56,0,3.59,0,9.17-7.18,11.57h-2c-13.16-16-6.78-16.35-27.52-27.12-12.36-6.78-20.34-13.16-33.9-11.57,0,.4-6.78,3.59-8,3.59-1.59,0-6-1.6-8.37-4-5.19-2.39-10-4.39-16.75-4-5.59.4-12.77.8-15.56,8-1.59,4,2.4,22.73,2,27.12,0,3.59.4,2.79-.4,6.78-1.6,4.39-2,2.79-2,7.18a38.69,38.69,0,0,0-2,13.56l2.79,6.38c1.2,5.59-2.39,29.52,4.79,35.5,1.59,1.19,12.76,4.38,14.75,3.59,3.19-2,12-5.59,15.56-5.59l6-4c.8-2.4,1.6-2.8,4.79-5.59,1.59-4.78,3.19-8,8.37-12,3.59,0,10-2,12.37,6,.39,1.2,1.59,4.39,1.19,12,0,2,1.2,5.59-3.59,12.37v6.38c2.79,4.79,2.79,3.19,2.79,8.77,0,3.19-.39,6.39-.39,9.18,0,2,.39,16.75-.8,18.74-1.6,2-4.39,3.59-8.78,3.19-2-1.19-2.39-.8-4-.8a13.34,13.34,0,0,1-4.39-4c-.8-2.8-2.79-4.79-4.39-9.18-8.37-9.57-9.17-3.19-18-6.78a42,42,0,0,1-9.17-6.38c-2,0-7.58-2.39-9.17-4-2.4-.79-11.17.4-13.56,2.8,1.59,14.75,3.19,12.76,3.59,22.73v11.57c-2.8,4.38-2.8,5.18-2.8,11.56v12.76c1.6,11.17-2.79,36.3,8.38,47.86,5.58,5.19,22.73,9.58,30.71,7.58h1.6l1.59-1.19,1.6-.4,1.59-.4c2.79-2.79,3.19-3.19,6.78-3.19H1086c8-6,10.37-8,12.77-10.77,5.58-3.19,6.38-6.38,8.77-13.56,2.39-4,4.79-9.57,7.58-14,4.39-5.19,8.77-5.19,14-6.78l4.38,2.79v11.17c0,12.36-1.19,14-.39,23.13v22.34c-1.6,4-.4,3.58-5.19,7.17-8,1.2-11.57,2-16.35,1.6-1.6,0-14.36-3.59-16.75-3.59h-6c-6.78,0-10.37,2.39-20.74,2.39h-12.37l-2,1.2h-4.79l-2.39-1.6a13.77,13.77,0,0,1-9.17.4l-32.71-2c-.8,0-2.79-.4-4.39-.4h-2l-2.39,2H990.3c-22.73.4-23.53.8-46.66-4v-6.78C974.75,254,972,246.39,973.15,213.69V189c0-1.59,0-10.77.8-12.76v-14c0-4.78.4-4,2.39-8.37L974,127.54c0-6.78,0-9.57.4-12.36l2-12,4.79-17.94c.4-3.59-2.79-20.34-3.19-24.73-1.6-10.77-1.2-16.75-8.77-25.13-5.19-4-6.78-8-12.77-10.37-4.78-3.59-8.77-8.37-8.77-12.76a7.15,7.15,0,0,1,3.59-2.39c2.39-1.2,2,0,4-1.6,4.78-1.19,3.59,0,8.37-.4,2.4-1.19,4.79-1.19,8-1.19,2.39,0,3.19.79,4.39,1.19a5.65,5.65,0,0,1,4,.8h8c1.6,0,6.38,2,8.38,3.59,8,2.39,8,0,15.55-3.19Z"/><path d="M1334.18,43.39c5.58,8.37,7.58,12,7.58,19.14a94.19,94.19,0,0,1-.4,9.57c-.8,2,.4,5.59-4.79,9.18h-4l-4-2c-.8-.39-3.59-2.39-7.18-7.18-1.2-1.19-2.8-4-4.79-8,0-2-1.6-5.19-4.39-8.38-3.59-1.19-10-5.58-13.56-7.57-1.19-1.2-4.39-4-6-5.59l-1.6-1.2-2-2-1.2-1.59-2-1.6c-7.18-5.19-15.55-6.38-27.12-7.18-10.77-.4-33.5,0-45.47,15.16-4.78,6.78-8.77,27.52-6.78,35.89,4,17.15,44.67,33.5,48.66,35.9l8,4a40.44,40.44,0,0,0,7.18,4l10.76,5.59c22.34,2.39,26.73,9.17,42.68,32.3,5.18,5.19,6.78,9.57,12,14.36,2,3.19,2.8,5.18,6,15.55,3.19,10.77,4.78,16.76,1.59,29.52-3.19,17.15-16.35,41.08-36.29,50.65-15.16,7.58-29.52,8.77-61,13.56-37.49,5.58-23.53,3.19-61-7.18l-8-2c-31.11-5.59-24.73-19.94-25.53-50.26V210.9l.8-8c4,0,12.76-.8,16.35,2,2,1.59,4.39,5.18,5.59,7.57,1.59,4.79,0,3.19,5.18,8l10.77,10c14.76,11.57,18.35,22.73,31.51,27.12,2.79,1.2,30.71,4.39,33.5,4.39,16.75-2,30.31-4.79,39.88-25.92,5.19-10.37.8-23.54,0-34.7l-4.38-5.19a67.92,67.92,0,0,0-7.58-4,48.67,48.67,0,0,0-8.38-3.59c-4-2.39-3.19-3.59-7.18-6.78a51.77,51.77,0,0,0-8-6c-18.75-12.36-20.74-7.58-26.73-21.93h-12.36l-12-2.4c-12.37-1.19-14.36-3.59-25.13-12-4,1.59-8-3.59-9.17-6.78l-4-11.17c-4.39-10-8.78-12.76-9.57-22.73-.8-4,2.39-30.71,3.59-34.3,0,0,19.94-34.7,20.74-35.5,23.53-25.92,63-24.73,96.91-24.33h6.78c12.37.4,31.11,4.79,44.27,8.78C1336.57,31,1336.17,26.24,1334.18,43.39Z"/><path d="M1458.71,105.75c6.32,9.71,10.36,11.66,14.41,21,.16.48,3.56,8.58,3.56,10.68a31.33,31.33,0,0,1-.65,5.34,25.64,25.64,0,0,0-.32,5.35v4.69c-.32,12.14-8.58,29.14-19.43,37.56-17,13.6-24,12.3-41.12,12.79h-7.28c-12.63-1-26.06-3.08-36.59-18.3-9.06-12.95-16.67-20.23-16.19-38.36V143c.49-12-2.59-8.25,3.56-20.23,1.46-2.75,10.53-17.32,13.6-20.24,9.23-8.74,22.67-12.79,31.9-13.76C1415.49,87.62,1444.14,83.9,1458.71,105.75Zm-8.58,61.19c1.46-6.47,4.54-8.09,3.56-14.4l-1.94-5.67c-.16-1.78.49-1.46.65-2.75a14.09,14.09,0,0,0-.16-2.59,26.9,26.9,0,0,1,.16-4.86,22,22,0,0,1,1-5.18c1.46-3.4,2.27-3.24,1-5-1-3.88-4.86-6-7.93-8.74-2.75-2.75-2.75-1.46-3.72-4.69l-1.3-2.43c-.32-.33-1.78-2.11-1.94-2.27l-1.46-1.46a18.34,18.34,0,0,1-2.27-2.75c-1-1-1.94-1.94-2.59-2.75-1.94-1.78-1.45-1-1.94-2.59a6.68,6.68,0,0,0-1.94-2.59c-.81-.65-8.91-1.94-11.33-1.94-7.45-.49-19,2.59-25.74,10-1.46,2.27-.65,1.62-2.76,3.73a20.85,20.85,0,0,0-3.07,3.56c-1.94,2.59-1.62,3.07-3.4,7.28a15.78,15.78,0,0,1-1.94,3.57c-.81,1.29-2,2.75-2.59,3.56-2,3.23-1.79,4.37-2.76,7.28l2.43,1.94c.33,3.08-.16,10-.32,17V158c.32,3.4-.16,10.85,1,13.92,1.29,3.08,5.5,10.36,9.39,12.63a13.48,13.48,0,0,1,3.07,1.46l2.92.48c1,0,2.1,1.46,2.75,2.27,1.46,1.46,1.78,1.46,2.91,1.46a23.06,23.06,0,0,1,6,.81,8.14,8.14,0,0,1,5.83,2.75c10.36.65,32.7-5.67,37.08-21.21Z"/><path d="M1531.73,90.47h10.52l7.12.32h2.27c.16,0,7.12-1.13,7.61-1.13a8.74,8.74,0,0,1,3.56.32,6.83,6.83,0,0,1,3.72,2.59l-1.13,1c0,1.94-.32,3.88-.32,5.82,0,2.27-.49,3.4-1.46,6a3.69,3.69,0,0,0,.49,2.92v8.9a5.43,5.43,0,0,1-3.57,1.3,5.62,5.62,0,0,1-3.56-2.11l-1.62-5a11,11,0,0,0-1.94-2.26l-.32-.65-.65-.65-.16-.48-.33-.65c-2.42-3.4-4.21-4.21-9.22-6.31-5.35-2.11-18.14-3.57-23.32.48-1.94,1.46-3.07,3.56-3.4,7.45,0,1.29-.16,2.43-.16,3.72-.32,1.94-.81,1.78-1.45,4v2.27c-.49,3.07,1.29,14.73,2.26,18.29a43.84,43.84,0,0,0,11,.32c2.27,0,3.08.65,5.5-1,.65-1.13.65-1.46,2.27-2.1l.65-.65.48-.81c.17-.16.33-1,.65-1.46.65-1.29,1.46-1.78,3.4-1.78a9.88,9.88,0,0,1,3.72.33c1.14,5.18.81,7.44.33,12.78v3.89c0,1.13.32,6,.32,7.93v6l-1.13,1.3c-3.08,0-2.91.16-4.7-1.78a22.48,22.48,0,0,1-4.85-3.89c-1.14-2.91-.81-1.78-3.56-4.37a21.13,21.13,0,0,0-4.86-3.72c-1.78-.81-7-1.3-9.07.16-2.42,1.78-2.59,11.33-3.07,13.76l-1.3,10c4.37,11.81-1.13,13.6,5,20.07a38.3,38.3,0,0,0,4.7,3.72c1.94,1.95,1.61,2.76,1.45,4.86-1.13.81-3.07.81-4.21.81h-2.26c-6.8-.16-8.42.32-11.5,0h-5.82c-8.59.81-4.54,1.13-13.44-1v-1.78c2.1-2.11,3.24-3.24,6-8.1.48-.81,1.94-3.23,2.26-4a20.16,20.16,0,0,0-.32-4.37V173.2c.16-1.14-.16-6.64,0-9.56.32-4,1.62-9.06,1.46-9.87l-1-9.55c0-2.92.32-7.29.64-10.53l1.62-8.74c.33-2.59-1-11.65-1.29-14.57v-5a12.32,12.32,0,0,0-3.24-7.61c-1.46-1.61-2.43-1.45-3.72-2.75s-2.27-2.1-1.46-3.88a24.61,24.61,0,0,1,5-.65c1.46,0,3.4-1.13,5.18-1.13h4.21c7,1,9.87-.65,17.48,2.75C1524.28,91.44,1526.55,90.47,1531.73,90.47Z"/><path d="M1671.44,10h25.92l17.55.8h5.58c.4,0,17.54-2.79,18.74-2.79a21.21,21.21,0,0,1,8.77.8c2,0,7.58,3.59,9.18,6.38l-2.8,2.39c0,4.79-.79,9.57-.79,14.36,0,5.58-1.2,8.37-3.59,14.75-.8,2.79,0,4.78,1.19,7.18V75.75c-2.39,2.39-6.38,3.19-8.77,3.19a13.85,13.85,0,0,1-8.77-5.18l-4-12.37c-.8-1.19-1.19-2-4.78-5.58l-.8-1.59-1.6-1.6-.4-1.2-.79-1.59c-6-8.37-10.37-10.37-22.73-15.55-13.16-5.19-44.66-8.77-57.42,1.19-4.79,3.59-7.58,8.78-8.38,18.35,0,3.19-.4,6-.4,9.17-.79,4.78-2,4.39-3.58,10v5.58c-1.2,7.58,3.19,36.29,5.58,45.06,10,2,22.73,1.2,27.11.8,5.59,0,7.58,1.59,13.56-2.4,1.6-2.79,1.6-3.58,5.58-5.18l1.6-1.59,1.2-2c.39-.4.79-2.39,1.59-3.59,1.6-3.19,3.59-4.38,8.37-4.38,4,0,4.79-.4,9.18.79,2.79,12.77,2,18.35.79,31.51v9.57c0,2.79.8,14.75.8,19.54v14.75l-2.79,3.19c-7.58,0-7.18.4-11.56-4.39-7.18-4.78-10.37-7.57-12-9.57-2.79-7.17-2-4.38-8.77-10.76-7.18-6.78-11.16-8.78-12-9.17-4.39-2-17.15-3.19-22.33.39-6,4.39-6.38,27.92-7.58,33.9L1624,209.73c10.77,29.11-2.79,33.5,12.36,49.45,2,2,10.37,8.77,11.57,9.17,4.78,4.78,4,6.78,3.58,12-2.79,2-7.57,2-10.36,2h-5.59c-16.74-.4-20.73.79-28.31,0h-14.35c-21.14,2-11.17,2.79-33.1-2.4v-4.38c5.18-5.19,8-8,14.75-19.94,1.2-2,4.79-8,5.59-10,.4-2.79-.4-7.58-.8-10.77V213.72c.4-2.79-.4-16.35,0-23.53.8-10,4-22.33,3.59-24.32l-2.39-23.53c0-7.18.79-17.94,1.59-25.92l4-21.53c.8-6.38-2.39-28.71-3.19-35.89V46.64c-.8-8-3.59-14.36-8-18.74-3.59-4-6-3.59-9.17-6.78s-5.58-5.19-3.59-9.57c2-.8,10-1.6,12.36-1.6,3.59,0,8.38-2.79,12.76-2.79h10.37c17.15,2.4,24.33-1.59,43.07,6.78C1653.1,12.35,1658.68,10,1671.44,10Z"/><path d="M1832.74,11.55l3.19,10,7.58,21.53c.8,2.39,1.59,4,1.59,6l4,11.57c.8,2,2.79,5.58,3.59,8.77l6.78,18.74c.8,2.39,4.39,11.17,5.18,14l7.18,27.11c1.6,5.59,1.6,3.59,2.39,9.57l2.4,10.37c1.19,4,2.39,4.79,4.38,9.57,1.2,3.59,2.4,7.18,3.59,10.37L1895,194.18l.4,1.6,1.19,2c.4,2.39,0,1.59,1.6,4l8,24.32c2.8,9.17,1.6,5.18,7.18,14.36,1.6,2.39,4.39,11.16,7.18,14.75,1.2,2,12,9.17,14,10.77,6.77,7.17,4,6.78,3.59,14.75-11.57,3.59-23.53,4.39-35.1,4.79h-35.48c-2.8,0-7.18-1.2-10.37-1.2h-10c-1.6-4,0-8,6.38-10.77,3.19-1.59,8.37-.4,12.76-5.58,6.78-8.77,0-24.32-5.19-40.27l-10.36-23.13-3.19-10.37-2.79-5.18-1.2-5.19c-2-7.18-4-13.56-14-17.94-4.78-2-46.65-2-52.63,1.19-4.79,2.8-6.78,6.78-9.57,16.35-.8,2.4-1.2,6-2.4,8.78-2,4.38-2,3.19-5.18,8.77l-3.19,12.76c-6.38,17.15-13.56,31.1-7.58,39.87,4.39,4.39,10.37,6.39,12.76,12.37,5.19,8.37,3.19,8,3.59,16.35h-21.93c-17.55.39-39.88,4-63-8.38,1.19-3.59.79-6,6-9.17,2-1.59,6.78-4,9.57-6,7.57-5.19,12.76-9.57,17.94-16.75l3.19-6c6.78-11.17,2.79-6.38,11.17-18.74,4.38-6,11.56-11.57,14-18.34l23.13-62.21,2-7.18,5.18-11.16.4-2,1.59-2.39.4-2.39,1.2-2.4,18.34-44.66q4.18-10.76,4.79-12L1804,41.86c5.58-13.56,4.79-36.69,7.18-39.08,4.78-5.19,14.75-1.6,19.54-1.2A29.06,29.06,0,0,1,1832.74,11.55Zm-26.32,76.16c-6.77,21.53-16.35,34.69-14.35,56.23a206.5,206.5,0,0,0,33.89.79l2.4-2.39v-9.17c-4.39-19.54-3.59-14.35-6.38-33.1-.4-3.59-1.6-13.95-1.6-16.74a28.36,28.36,0,0,0,1.6-8c0-3.59-.4-6-4-7.18-7.18,2.4-6.38,4-8.77,9.57Z"/><path d="M2024.72,68.57v128.8c0,2.79,1.2,20.74,1.2,21.53v17.15c1.2,16.35,2.39,24.32,18.34,41.47v4.39c-11.56,1.59-27.11,1.19-35.49.4h-9.57a31.84,31.84,0,0,0-8.37,2c-2,0-5.58.4-8.77.4-2.79.4-6.78.4-16.75-.4-.4-.4-6.78-4.39-7.58-6a9.42,9.42,0,0,1-1.19-8.38c7.57-5.58,7.17-7.57,13.16-13.95,6-7.18,6.77-7.58,8-15.15,0-.4,2-29.91,2-30.71V191c0-2.79.4-6,.4-9.17v-9.57l-2-24.72V136.76c0-3.59-.4-7.58-.4-11.17l2-30.7c-.79-11.56.8-51.44-13.16-62.61-4.78-3.58-16.34-4.38-16.34-13.15-.4-5.19.79-4.79,5.58-7.58,14.35-9.57,30.3,1.2,45.46,0L2014,8.36a53.88,53.88,0,0,1,14,0c1.6.8,11.57,1.59,13.16,1.59,7.18,2,7.18,4.79,7.18,11.17C2023.53,49,2023.93,40.66,2024.72,68.57Z"/><path d="M2129.31,4.37c44.66,17.55,34.29,2.79,79,2.79l4.78,1.6,3.19-1.6c18.35.4,12.37,2,30.71,6.38,2.79-3.59,9.17-2.39,13.16-3.59h24.32V25.51c-1.19,9.17-2,5.58-6,14.35a40.52,40.52,0,0,0-3.19,14.36c0,2.39.4,4.78.4,7.17,0,3.19-1.2,4-2.39,8l-10.77,2-4-8.37c-1.59-3.59-2-6.38-2.79-8l-2-6.77c-2-2.8-1.6-8.38-6.38-8.38-4-3.59-2.39-4.39-8-7.58-2.39-.79-8.37-3.19-10.36-2.39l-2.4,2h-6.78c-3.19-3.19-10-5.19-14-3.59l-2.4-1.6h-4.38c-2.39,2.79-2.79,7.58-2.79,10.37a61.88,61.88,0,0,0-.8,10.77v69.78c.4,2-.8,10-.8,12v11.57c0,1.19-.8,7.57-1.2,9.57,0,3.19-.79,6.77-.79,10.36.79,1.6.79,2,.79,4.39,0,1.59.8,3.59,1.2,5.18l1.2,10.37v7.58c0,3.19.4,8,.8,16.75v28.71c-.4,23.12,6.77,23.52,30.7,41.07v12c-2.39,0-5.18-.8-8.37-.8-2.8,0-8.38-.79-10-.79-4-2.8-3.19-3.19-9.17-3.19h-44.27c-14.75-.4-20.33,1.19-30.3,3.58l-6-10.36c34.29-33.1,25.52-16.35,27.51-56.23V165.07c0-3.19-.8-8-.8-12V129.58a30.76,30.76,0,0,1,2.4-9.17c0-2.39.39-6.38.39-9.57a63.75,63.75,0,0,0-1.19-10c0-1.2-1.6-7.58-2-9.57v-6c0-17.94,4-14.36-.39-32.7-2.4-8.77.79-7.18-7.18-16.35-3.19-3.59-6.38-6.38-7.58-7.57-2.39-2-6-3.59-8.37-3.59a29.33,29.33,0,0,1-11.57,6.78l-11.16,4c-6.38,3.19-5.19,1.2-9.17,7.58,0,4.39-2,7.58-6,10.37-4.79,2.79-3.19,2-5.59,6-1.59,2-4.78,5.58-7.18,6.78-8.77,0-8.37-1.2-8.37-9.57,0-4.39,1.2-8.38,1.2-12.36V32.28c-.4-13.55-1.2-14.35-4-25.12,14.75-9.17,15.15-6.78,31.1-.8l7.18,2.4c8.77.8,5.18-2.4,14.36-3.59,3.19-.4,10.76.4,13.95.4Z"/><path d="M2381.81,20.72c-4.39,4-5.58,3.19-8.37,6-3.19.8-4.79,4.39-5.59,7.18-.79,1.2-1.59,3.19-2,8.77-3.59,27.92,4.39,14.76-6.78,42.67l1.6,2,2.39,1.6a11.41,11.41,0,0,1,1.59,4.78c-.4,6,1.2,3.59-.79,10-1.2,9.57,0,12,1.59,19.54h11.17l5.58,2.79c12.76,0,22.33-.79,34.69,3.19,19.54,1.2,12.76-.4,29.91,5.19l7.57-4.79c2.4,0,8.38,2,11.57,3.19.8,0,2.39-1.2,6.38-1.2h1.59l1.2.8,1.59-.8h1.6c2.39-2,4.39-1.59,6.38-4.78l3.19-7.18c.8-2.39,1.2-4.78,2.39-7.18,0,0,2-3.19,2.39-3.58,1.6-1.6,2-1.6,2.8-3.59v-2c-9.18-22.33,0-53-1.2-57-2.79-9.57-7.58-14.35-19.94-22.73V16.33a12.63,12.63,0,0,1,9.17-3.58h13.56c1.2,0,10.37-.8,12.76-1.2h35.09c4.39,0,10,.8,15.16.8v5.58c-3.2,4.78-2.8,4.78-10.37,10.37l-1.6.79-1.59.8-2.79,2-1.6.39h-1.59l-1.6-.79-1.59.79c0,9.58,2.79,23.13.39,32.7-3.19,16.35-1.59,20.74,0,33.1v6.38c1.2,10.37,2,19.14,1.6,20.74-.4,3.58-2.39,6.37-3.59,10-2.79,4-2,4.79-2,10.77,4.78,8,4.78,4.39,4.78,12.76v25.92c0,1.2,0,1.2-.8,3.59,0,2,.4,1.59-.39,4v15.15c.79,15.55-2.8,47.45,14.75,62.21,2.79,2.39,6.38,1.19,10,6,.8,2.39,2,8-.8,10.36h-8a23.5,23.5,0,0,0-8.78-2.39c-2.39-.4-5.58,0-8.77.4-4.78,0-6.38,1.2-8.77,2-8.38.4-7.58-2.39-16.75-3.19h-8.77c-.4,0-7.18-2.79-8.78-2.79-3.58-.4-4.38,1.2-8,1.2h-8.37l-5.59-6c0-4,1.2-10.37,8-10.37,4.38-2.79,10.37-6.38,10.37-12,5.58-13.56-3.59-22.33,5.18-41.07-7.18-22.73-5.18-19.54-3.59-41.08-2-3.59-3.59-6.38-7.58-8.77-5.18-5.58-5.18-6.38-9.17-7.58-34.29,0-28.31,5.19-55.82-2l-2.79,1.6c-4,0-6.78-1.6-11.17,0l-11.17.79c-8,0-14.75-5.58-22.72,0-7.18,5.19-8.78,36.69-9.18,43.07l-4,5.58,4.78,1.2c0,8.37-.4,17.54.4,29.51s1.2,19.93,14.36,28.31c1.19,1.19,7.57,5.18,9.57,5.18,2.39,1.6,6.77,5.19,5.58,8l-2,2h-6.38l-3.59-1.2c-2,1.2-6.38,2-8.78,2-4.38,0-5.18.4-9.17,2-10,3.19-11.56,2.39-17.54,2h-8c-4.39,0-9.17-1.2-11.16-3.19-2.4-1.2-2-1.6-5.59-1.6l-1.59.8-1.6,1.59a7.81,7.81,0,0,1-2.79.8c-10.36,2.79-13.56-.8-23.52-2-2.8-4-2.4-8.38-1.2-12.36,2.79-5.19,7.18-5.59,11.16-8.78,12.37-8.77,12-12.76,14.36-25.92,2-10,4.39-15.15,3.19-28.31V181c-.8-17.94-2.79-17.94-2-32.7L2318,120c0-2.39-.8-6-.8-8.77v-47c-.4-4.79-1.2-17.55-2.39-24.33-.4-3.59-.4-8.37-4-12-3.19-1.6-2-.8-5.58-4.39l-3.19-.8-1.2-1.59-1.59-.4c-5.59-4-7.18-9.17-3.59-14.36l9.17,2c4.39-1.2,10.77-3.59,15.15-3.19,6.38.8,8.78,4.78,15.95,4l13.56-2.4c2,0,7.18-.79,8.77-2a24.11,24.11,0,0,1,9.57,0c1.6.4,3.19.4,4.79.8L2377.42,8c1.2,0,6.38.4,9.57,4.39C2385.4,16.73,2385.8,16.73,2381.81,20.72Z"/></g></g></svg>