<svg xmlns="http://www.w3.org/2000/svg" viewBox="0 0 168.72 131.11"><defs><style>.cls-1{fill:#fff;}.cls-2{fill:none;}</style></defs><g id="Layer_2" data-name="Layer 2"><g id="Layer_1-2" data-name="Layer 1"><path class="cls-1" d="M150.56,49.94a4.41,4.41,0,0,0-.95,2.13,4.61,4.61,0,0,0,1,3.56l0,0,.05,0a4.28,4.28,0,0,1,.37.42l.14.17,0,0a2.35,2.35,0,0,1,.37.66,3.89,3.89,0,0,1,.24,2.7L150.48,65,144.7,86.54q0,.1-.06.33a1.33,1.33,0,0,0,.13.92.84.84,0,0,0,.64.19h17.81a4,4,0,0,1,3.87,5l-2.59,9.61a4,4,0,0,1-3.86,3h-1.55l1.62,1.16a4,4,0,0,1,1.54,4.3l-2.91,10.81a4.05,4.05,0,0,1-1.05,1.8l-4.87,4.81a4,4,0,0,1-2.81,1.15h-18a4,4,0,0,1-3.17-1.56,3.93,3.93,0,0,1-.74-1.64l-.39.85a4,4,0,0,1-3.65,2.35H107.23a4.14,4.14,0,0,1-.7-.06,3.66,3.66,0,0,1-.65.06h-9.6a3.95,3.95,0,0,1-3.94-3.36l-.25,0,.25-1.4a.41.41,0,0,0,0-.07H84.78a1.35,1.35,0,0,0-1,.31l-.41,1.53a4,4,0,0,1-3.86,3H52.89a4,4,0,0,1-.6,0,4,4,0,0,1-.6,0H42.08a4,4,0,0,1-.67-.06,4.06,4.06,0,0,1-.67.06h-18a4,4,0,0,1-3.59-2.24l-2.35-4.81a4,4,0,0,1-.26-2.79l6.45-24A4.08,4.08,0,0,1,24,93.94l1-1a7.19,7.19,0,0,0,1.43-2.18h-.88a4,4,0,0,1-3.86-5l1.18-4.43c.09-.33.06-.5,0-.54a.38.38,0,0,0-.16-.08H20.58A1.63,1.63,0,0,0,18.92,82l-1.54,5.78a4,4,0,0,1-3.87,3h-8a4,4,0,0,1-3.87-5L9.17,57.62a4,4,0,0,1,3.87-3h5.23c5.53,0,6.06-9.16,6.09-12V41.4l-.05-6.63L24.7,36a16.17,16.17,0,0,1,1-3.71A8.33,8.33,0,0,1,31.93,27a10.17,10.17,0,0,1,1.67-.14H34a6.94,6.94,0,0,1,.83-.76l.1-.07a19.17,19.17,0,0,1,3.55-2c1.15-.47,2.28-.88,3.38-1.28.7-.25,1.4-.5,2.09-.77a12.36,12.36,0,0,0,1.73-.79c.08-.06.25-.22.4-.36l.54-.49.42-.38a16.34,16.34,0,0,1,1.53-1.27,18.73,18.73,0,0,1,5.46-2.56,18.25,18.25,0,0,1,4.42-4,9.67,9.67,0,0,1,4-2.47A9.24,9.24,0,0,1,64.1,8a5.45,5.45,0,0,1,3.58-1.31,6.41,6.41,0,0,1,1.06.09A5.26,5.26,0,0,1,72.7,5a6.66,6.66,0,0,1,1.61.21l.25,0a11.27,11.27,0,0,1,3-.56l.62,0A6.91,6.91,0,0,1,84.5,8.38a5.54,5.54,0,0,1,.72,1.95,7.85,7.85,0,0,1,.19,1.28l0,.29V12c0,.34,0,.7,0,1.07h0l-.06.63c0,.21,0,.41,0,.62a8.42,8.42,0,0,1,1.4-.79l0,0,.15-.05c.15,0,.22-.41.22-.56l0-.69h0a10.66,10.66,0,0,1,4.67-7.92,15.18,15.18,0,0,1,6.42-2.51,18.31,18.31,0,0,1,7.74.37,12.76,12.76,0,0,1,2.5.95l.72-.36a6.78,6.78,0,0,1,.86-.35A6.18,6.18,0,0,1,112.09,2a5.15,5.15,0,0,1,3.72,1.53,5.49,5.49,0,0,1,1.51,4,11.14,11.14,0,0,1-.81,4,10,10,0,0,1,2.89,2.71,25.08,25.08,0,0,1,1.47,2.34,17.2,17.2,0,0,1,4.39,2.27,13.43,13.43,0,0,1,2,1.84c.19.21.38.45.58.69l.16.2c.6.29,1.09.58,1.53.84a8.62,8.62,0,0,0,1.13.61A32.3,32.3,0,0,1,134,24.65l-.39.93.48-.88,1.17.62a44.72,44.72,0,0,1,8.64,6.2l3.51,3.29.23.32a13.82,13.82,0,0,1,2.73,5.81,8.14,8.14,0,0,1,1.3,5.76v.13l-.08.41C151.21,48.14,150.89,49,150.56,49.94Z"/><path d="M24.6,34.06a14.23,14.23,0,0,1,.64-1.94,8.82,8.82,0,0,1,6.61-5.57,10.8,10.8,0,0,1,2-.15,8.31,8.31,0,0,1,.73-.64l.1-.08a19.31,19.31,0,0,1,3.67-2.06c1.16-.48,2.3-.89,3.4-1.29.7-.25,1.39-.5,2.08-.77a11.35,11.35,0,0,0,1.66-.75l.2-.19.11-.11.55-.5.41-.36a14.23,14.23,0,0,1,1.59-1.32,19.34,19.34,0,0,1,5.44-2.59,18.81,18.81,0,0,1,4.41-3.93,10.27,10.27,0,0,1,4-2.51,9.88,9.88,0,0,1,1.56-1.7,6,6,0,0,1,4.78-1.36A5.75,5.75,0,0,1,72.7,4.53a7.67,7.67,0,0,1,1.73.22l.1,0a11.78,11.78,0,0,1,3-.55l.65,0A7.41,7.41,0,0,1,85,8.14a6.55,6.55,0,0,1,.76,2.08,8.92,8.92,0,0,1,.2,1.35l0,.44c0,.09,0,.17,0,.27l.08,0L86,13.37l.63-.31.08,0a.5.5,0,0,0,0-.16l0-1,.07,0a11.19,11.19,0,0,1,4.85-8,15.54,15.54,0,0,1,6.63-2.59,18.7,18.7,0,0,1,8,.38,14,14,0,0,1,2.37.87l.49-.25a8,8,0,0,1,.94-.38,5.93,5.93,0,0,1,6.15,1.34,6,6,0,0,1,1.65,4.34,11.67,11.67,0,0,1-.7,3.78A10.74,10.74,0,0,1,119.8,14a24.83,24.83,0,0,1,1.42,2.23,17,17,0,0,1,4.33,2.27,13.46,13.46,0,0,1,2.08,1.91c.2.21.4.46.6.71l.09.11c.57.28,1.05.57,1.47.81a7.1,7.1,0,0,0,1.05.57,28.6,28.6,0,0,1,3,1.45l.09.05.11.06.24.13c.45.24.81.44,1.16.61a45.31,45.31,0,0,1,8.75,6.28l3.51,3.3.3.39a14.24,14.24,0,0,1,2.79,5.9,8.72,8.72,0,0,1,1.33,6l-.1.57L151,50.25a4,4,0,0,0-.85,1.9,4.16,4.16,0,0,0,.91,3.13l.05,0,.45.49.2.27a2.87,2.87,0,0,1,.41.74,4.41,4.41,0,0,1,.26,3l-7.19,26.84s0,.14-.06.3a1.05,1.05,0,0,0,0,.51s.08,0,.25,0h17.81a4.51,4.51,0,0,1,4.35,5.67L165,102.76a4.52,4.52,0,0,1-4.33,3.33l.34.25a4.49,4.49,0,0,1,1.73,4.83L159.82,122a4.58,4.58,0,0,1-1.18,2l-4.87,4.8a4.46,4.46,0,0,1-3.16,1.3h-18a4.5,4.5,0,0,1-3.56-1.75,4.34,4.34,0,0,1-.41-.64,4.52,4.52,0,0,1-4,2.39H107.23a5.34,5.34,0,0,1-.69-.05,3.74,3.74,0,0,1-.66.05h-9.6a4.52,4.52,0,0,1-3.57-1.76,4.31,4.31,0,0,1-.76-1.53l-.48.07.29-1.58h-7a1.52,1.52,0,0,0-.61.1l-.36,1.36a4.51,4.51,0,0,1-4.35,3.34H52.89a4,4,0,0,1-.6,0,4,4,0,0,1-.6,0H42.08a5.16,5.16,0,0,1-.67-.05,5.16,5.16,0,0,1-.67.05h-18a4.5,4.5,0,0,1-4-2.53l-2.35-4.8a4.54,4.54,0,0,1-.3-3.14l6.46-24a4.61,4.61,0,0,1,1.18-2l1-1a8.51,8.51,0,0,0,1-1.34h-.09a4.49,4.49,0,0,1-4.34-5.66l1.18-4.42H20.58a1.13,1.13,0,0,0-1.18.91l-1.54,5.77a4.5,4.5,0,0,1-4.35,3.34h-8a4.51,4.51,0,0,1-4.35-5.67L8.69,57.49A4.51,4.51,0,0,1,13,54.15h3c.43,0,1.2,0,2.13,0h.15c5.06,0,5.55-8.78,5.58-11.47m105,82.1.31,1.52a3.49,3.49,0,0,0,.65,1.44,3.53,3.53,0,0,0,2.77,1.36h18a3.48,3.48,0,0,0,2.46-1l4.86-4.8a3.54,3.54,0,0,0,.93-1.58l2.91-10.81a3.5,3.5,0,0,0-1.35-3.76l-2.89-2.07h3.11A3.51,3.51,0,0,0,164,102.5l2.58-9.61a3.5,3.5,0,0,0-3.38-4.41H145.41a1.29,1.29,0,0,1-1-.37,1.86,1.86,0,0,1-.23-1.34l.06-.31,7.2-26.89a3.39,3.39,0,0,0-.21-2.35,2.62,2.62,0,0,0-.32-.59l-.14-.18a3.92,3.92,0,0,0-.35-.38l-.12-.12a5.22,5.22,0,0,1-1.16-4,4.83,4.83,0,0,1,1-2.31l1-3a7.74,7.74,0,0,0-1.21-5.4l-.07-.09,0-.12a13.28,13.28,0,0,0-2.65-5.61L147,35.1l-3.45-3.21A43.23,43.23,0,0,0,135,25.77l-.75-.39-.24.44-.9-.43.21-.51a27.54,27.54,0,0,0-2.84-1.38,8.72,8.72,0,0,1-1.19-.63,15.38,15.38,0,0,0-1.5-.82l-.17-.14-.11-.14c-.24-.3-.43-.53-.61-.73A11.57,11.57,0,0,0,125,19.27a16.13,16.13,0,0,0-4.25-2.2l-.18-.07-.09-.16a24.87,24.87,0,0,0-1.45-2.3A9.54,9.54,0,0,0,116.25,12l-.36-.23.16-.39a10.78,10.78,0,0,0,.77-3.81,5,5,0,0,0-1.37-3.62,4.92,4.92,0,0,0-5.12-1.09,6,6,0,0,0-.8.33l-.94.47-.23-.11A13.08,13.08,0,0,0,106,2.6a17.85,17.85,0,0,0-7.53-.36,14.68,14.68,0,0,0-6.22,2.43,10.18,10.18,0,0,0-4.45,7.55l-.06.67s0,.84-.56,1L87,14a7.35,7.35,0,0,0-1.31.74l-.89.62.1-1.07c0-.21,0-.41,0-.6l0-.34v-.27c0-.36,0-.7,0-1v-.14l0-.23a8.16,8.16,0,0,0-.17-1.22,5.59,5.59,0,0,0-.65-1.78,6.46,6.46,0,0,0-5.91-3.45l-.59,0a10.53,10.53,0,0,0-2.86.53l-.13,0-.13,0-.27-.06a6.26,6.26,0,0,0-1.5-.2,4.77,4.77,0,0,0-3.59,1.58l-.19.2-.27,0a5,5,0,0,0-4.22,1.11A8.91,8.91,0,0,0,62.94,10l-.1.13-.16,0a9.19,9.19,0,0,0-3.83,2.36l-.09.06a18,18,0,0,0-4.3,3.87l-.1.13-.16,0a18.31,18.31,0,0,0-5.3,2.5,12.85,12.85,0,0,0-1.48,1.22l-.43.39c-.18.15-.36.32-.53.48l-.11.1c-.13.12-.26.24-.33.29a12.77,12.77,0,0,1-1.85.86c-.7.26-1.39.52-2.1.77-1.09.39-2.22.8-3.36,1.27a18,18,0,0,0-3.44,1.94l-.09.07a6.16,6.16,0,0,0-.78.7l-.16.17H34a9.4,9.4,0,0,0-2,.12,7.86,7.86,0,0,0-5.86,5,15.51,15.51,0,0,0-1,3.59l-.33,2.08,0-.14,0,4.64c0,2.94-.6,12.48-6.59,12.48h-.16c-.91,0-1.63,0-2.09,0H13a3.51,3.51,0,0,0-3.38,2.6L2.12,85.8A3.5,3.5,0,0,0,5.5,90.21h8a3.49,3.49,0,0,0,3.38-2.6l1.55-5.78a2.11,2.11,0,0,1,2.14-1.64h2.17a.8.8,0,0,1,.57.29,1.17,1.17,0,0,1,0,1l-1.18,4.43a3.51,3.51,0,0,0,3.38,4.4h.93l.58.07-.15.56a7.7,7.7,0,0,1-1.54,2.39l-1,1a3.64,3.64,0,0,0-.92,1.59L17,119.9a3.49,3.49,0,0,0,.23,2.44l2.35,4.81a3.51,3.51,0,0,0,3.14,2h18a4,4,0,0,0,.58-.05l.09,0,.09,0a3.9,3.9,0,0,0,.58.05h9.61a3.15,3.15,0,0,0,.53,0h.15a3,3,0,0,0,.52,0H79.46a3.51,3.51,0,0,0,3.38-2.59l.49-1.7a1.73,1.73,0,0,1,1.45-.51h7.55l0,.49h0l.44-.2a.5.5,0,0,0-.42-.22h.6l-.07.41,0,.06-.06.12-.12.7h.05l.07.49a3.4,3.4,0,0,0,.67,1.57,3.52,3.52,0,0,0,2.78,1.37h9.6a2.81,2.81,0,0,0,.57-.05l.08,0,.09,0a4.07,4.07,0,0,0,.61.05h17.41a3.5,3.5,0,0,0,3.19-2.05ZM86.81,13l0,0Z"/><path d="M101.39,2.5a17.14,17.14,0,0,1,4.44.59,11.75,11.75,0,0,1,2.74,1.11l1.19-.6a5.5,5.5,0,0,1,.73-.29,5,5,0,0,1,1.6-.27,4.19,4.19,0,0,1,3,1.23,4.51,4.51,0,0,1,1.22,3.26,10.4,10.4,0,0,1-.87,4c0,.2.1.42.14.66a9.08,9.08,0,0,1,3,2.68,25.83,25.83,0,0,1,1.6,2.58,16,16,0,0,1,4.48,2.25,12.43,12.43,0,0,1,1.85,1.7c.18.19.35.42.54.64l.31.4a15.31,15.31,0,0,1,1.65.88,7.86,7.86,0,0,0,1.27.67,35.14,35.14,0,0,1,3.2,1.58c.44.24.87.47,1.27.67a43.19,43.19,0,0,1,8.41,6l3.23,3,.21.2.17.23a12.86,12.86,0,0,1,2.57,5.48l0,.17a7,7,0,0,1,1.25,5.23v.12l0,.13a8.32,8.32,0,0,1-.86,2.53h0s-3.07,4.39.29,7.06a3.34,3.34,0,0,1,.37.41h0v0a2,2,0,0,1,.3.49,3,3,0,0,1,.21,2.09l-1.42,5.27-2.34,8.75h0l-3.44,12.86s0,.12-.07.33S143.27,89,145.4,89h17.82a3,3,0,0,1,2.38,1.17,3,3,0,0,1,.52,2.61l-2.58,9.61a3,3,0,0,1-2.9,2.22H156l4.17,3a3,3,0,0,1,1.15,3.22l-2.91,10.81a3,3,0,0,1-.79,1.35l-4.86,4.81a3,3,0,0,1-2.11.86h-18a3,3,0,0,1-2.9-3.77c.26-1-.22-1-.42-1h-.09c-.41,0-.85.91-.85.91l-1,2.1a3,3,0,0,1-2.74,1.76H96.28a3,3,0,0,1-2.94-3.53h0v0a1.08,1.08,0,0,0-1.23-1.24H84.78c-1.68,0-2,1-2,1l-.43,1.62a3,3,0,0,1-2.9,2.22H22.72a3,3,0,0,1-2.7-1.68l-2.34-4.81a3,3,0,0,1-.2-2.09l6.46-24a3,3,0,0,1,.79-1.36l1-1s3.56-3.89.52-3.9h-.67A3,3,0,0,1,22.66,86l1.19-4.43c.47-1.76-1-1.88-1-1.88H20.58a2.65,2.65,0,0,0-2.62,2l-1.55,5.8a3,3,0,0,1-2.9,2.23h-8a3,3,0,0,1-2.9-3.78l7.54-28.05A3,3,0,0,1,13,55.65h5.24c6.33,0,7-9.36,7.08-13V41.32h0a23.51,23.51,0,0,1,1.28-8.63A7.34,7.34,0,0,1,32.11,28a8.1,8.1,0,0,1,1.49-.13,8,8,0,0,1,.84,0l.06-.05a6.08,6.08,0,0,1,1-1l0,0,0,0A17.85,17.85,0,0,1,38.9,25c1.12-.47,2.25-.88,3.34-1.27.71-.25,1.41-.51,2.11-.78a13.17,13.17,0,0,0,1.88-.86,4.76,4.76,0,0,0,.57-.49l.51-.46c.16-.13.3-.27.45-.4a13.06,13.06,0,0,1,1.42-1.18,18,18,0,0,1,5.47-2.52A17.54,17.54,0,0,1,59.12,13a8.67,8.67,0,0,1,4-2.39l.06-.09a8.37,8.37,0,0,1,1.54-1.75,4.48,4.48,0,0,1,2.93-1.07,5.24,5.24,0,0,1,1.4.19h0A4.33,4.33,0,0,1,72.7,6a5.75,5.75,0,0,1,1.38.18,3,3,0,0,0,.58.1h.07a9.68,9.68,0,0,1,2.9-.57l.55,0h0a5.94,5.94,0,0,1,5.48,3.21h0a4.79,4.79,0,0,1,.59,1.61,10.44,10.44,0,0,1,.17,1.16v0a1.11,1.11,0,0,0,0,.19.33.33,0,0,0,0,.1,16.65,16.65,0,0,1-.1,2.73h0S84.23,16,84.73,16a.68.68,0,0,0,.4-.19l0,0a7,7,0,0,1,2.1-1.39h0c.91-.31.91-1.5.91-1.5h0A9.66,9.66,0,0,1,92.5,5.08a14.06,14.06,0,0,1,6-2.34,17.58,17.58,0,0,1,2.88-.24M34.17,89h.07l0,0,0,0M152.69,45.39a8.56,8.56,0,0,0-1.42-4.85,15.17,15.17,0,0,0-2.87-6l-.17-.24-.11-.16L148,34l-.22-.2-3.23-3a45.33,45.33,0,0,0-8.86-6.36c-.38-.19-.78-.41-1.19-.63l0,0A33.64,33.64,0,0,0,131,22.11a8.07,8.07,0,0,1-1-.54c-.39-.23-.85-.5-1.4-.78l0,0c-.21-.26-.41-.52-.62-.74a13.83,13.83,0,0,0-2.15-2,17.41,17.41,0,0,0-4.29-2.28c-.39-.67-.83-1.39-1.35-2.12a11.19,11.19,0,0,0-2.49-2.51,12.55,12.55,0,0,0,.6-3.58,6.46,6.46,0,0,0-1.8-4.7A6.15,6.15,0,0,0,112.09,1a7,7,0,0,0-2.24.37,6.8,6.8,0,0,0-1,.41l-.28.14a13.46,13.46,0,0,0-2.23-.8,18.93,18.93,0,0,0-5-.66,20.31,20.31,0,0,0-3.2.26,16,16,0,0,0-6.84,2.69,11.57,11.57,0,0,0-5,7.74,11,11,0,0,0-.18-1.1,7,7,0,0,0-.83-2.22,7.94,7.94,0,0,0-1-1.46L84.08,6l-.06,0a8.11,8.11,0,0,0-5.84-2.35l-.69,0a12.52,12.52,0,0,0-3,.53A7.73,7.73,0,0,0,72.7,4a6.25,6.25,0,0,0-4.31,1.68l-.71,0a6.44,6.44,0,0,0-4.22,1.54,10.18,10.18,0,0,0-1.54,1.65,10.8,10.8,0,0,0-4.06,2.55,18.88,18.88,0,0,0-4.37,3.89,19.67,19.67,0,0,0-5.44,2.61,14.43,14.43,0,0,0-1.65,1.36l-.39.35-.57.52c-.1.09-.21.2-.3.27a12.16,12.16,0,0,1-1.51.68c-.67.26-1.35.5-2,.75-1.15.41-2.3.82-3.46,1.31a19.91,19.91,0,0,0-3.78,2.12l0,0-.05,0a8.29,8.29,0,0,0-.66.56h0a10.16,10.16,0,0,0-1.84.16,8.64,8.64,0,0,0-2.54.85,10,10,0,0,0-4.43,5c-.13.3-.25.64-.29.73-1,2.69-1.13,5.27-1.15,8.76v1.3c0,2.6-.49,10.95-5.09,10.95h-.12c-.45,0-.85,0-1.21,0H13a5,5,0,0,0-4.83,3.71L.67,85.41a5,5,0,0,0,4.83,6.3h8A5,5,0,0,0,18.34,88l1.56-5.8a.6.6,0,0,1,.68-.51h1.16l-1,3.79a5,5,0,0,0,4,6.22c-.16.21-.33.42-.48.59l-.95.94A5,5,0,0,0,22,95.49l-6.46,24a5.07,5.07,0,0,0,.33,3.49l2.35,4.8a5,5,0,0,0,4.49,2.81H79.46a5,5,0,0,0,4.83-3.71l.29-1.08h6.57l.46,1.58a4.93,4.93,0,0,0,.7,1.27,5,5,0,0,0,4,2h28.36a5,5,0,0,0,4-2h0a5,5,0,0,0,4,2h18a5,5,0,0,0,3.51-1.44l4.87-4.8a5.07,5.07,0,0,0,1.31-2.26l2.92-10.81a5,5,0,0,0-1.33-4.87,5,5,0,0,0,3.58-3.54l2.58-9.61a5,5,0,0,0-4.83-6.3H145.64c0-.09,0-.17,0-.23L149.1,74l.05-.18h0l2.29-8.58L152.86,60a5,5,0,0,0-.31-3.41,3.66,3.66,0,0,0-.43-.76v0l-.11-.14-.1-.14,0,0a5.76,5.76,0,0,0-.41-.44l-.08-.09-.09-.07c-1.81-1.43-.3-3.64.11-4.35A12.49,12.49,0,0,0,152.69,45.39Z"/><path d="M150.61,131.11h-18a5.5,5.5,0,0,1-4-1.7,5.52,5.52,0,0,1-4,1.7H96.28a5.47,5.47,0,0,1-5.14-3.54l-.36-1.26H85l-.2.72a5.5,5.5,0,0,1-5.31,4.08H22.72A5.51,5.51,0,0,1,17.78,128l-2.34-4.8a5.43,5.43,0,0,1-.37-3.84l6.45-24A5.66,5.66,0,0,1,23,92.87l.89-.88a5.48,5.48,0,0,1-3.61-6.64l.84-3.16h-.65a.34.34,0,0,0-.06.14l-1.55,5.79a5.52,5.52,0,0,1-5.32,4.08h-8A5.49,5.49,0,0,1,.19,85.28L7.73,57.23A5.5,5.5,0,0,1,13,53.15H16c.53,0,1.26,0,2.2,0h.12c4.24,0,4.56-8.71,4.58-10.46V41.45c0-3.66.12-6.24,1.18-9,0-.13.17-.45.3-.75A10.25,10.25,0,0,1,29,26.47a9.43,9.43,0,0,1,2.68-.91,11.53,11.53,0,0,1,1.77-.16L34,25l.1-.07A19.83,19.83,0,0,1,38,22.7c1.18-.49,2.35-.92,3.48-1.32l2-.75A10.46,10.46,0,0,0,44.89,20h0l.13-.13.08-.08.58-.52c.12-.1.23-.21.37-.34a14.62,14.62,0,0,1,1.71-1.41,20.15,20.15,0,0,1,5.44-2.63A19.52,19.52,0,0,1,57.55,11a11.22,11.22,0,0,1,4.06-2.58,10.64,10.64,0,0,1,1.52-1.61A7,7,0,0,1,68.21,5.2a6.91,6.91,0,0,1,6.27-1.46,13.75,13.75,0,0,1,3-.51l.72,0A8.64,8.64,0,0,1,84.05,5.4l.08-.06.36.39.27.39a8.58,8.58,0,0,1,1,1.51A6.18,6.18,0,0,1,86.42,9a12.36,12.36,0,0,1,4.64-6,16.58,16.58,0,0,1,7-2.77,19.84,19.84,0,0,1,8.37.4,15.68,15.68,0,0,1,2.09.73l.07,0A6.2,6.2,0,0,1,109.7.94a6.92,6.92,0,0,1,7.18,1.58,6.93,6.93,0,0,1,1.94,5.06A13.1,13.1,0,0,1,118.3,11a11.77,11.77,0,0,1,2.31,2.41,23.33,23.33,0,0,1,1.29,2,18.13,18.13,0,0,1,4.24,2.28,14.42,14.42,0,0,1,2.23,2c.2.22.39.46.59.71.51.26.95.52,1.32.74a8.49,8.49,0,0,0,.93.5,35.62,35.62,0,0,1,3.45,1.69l-.1.51.23-.44c.38.21.75.41,1.1.58a45.44,45.44,0,0,1,9,6.45L148.64,34l.17.23a15.64,15.64,0,0,1,2.93,6.09,9.14,9.14,0,0,1,1.45,5.06,12.79,12.79,0,0,1-1.38,5.36l-.08.14c-.74,1.23-1.33,2.62-.14,3.56l.22.19c.15.16.29.31.43.48l.27.34a4.79,4.79,0,0,1,.5.89,5.39,5.39,0,0,1,.33,3.73l-7.07,26.39h16.95a5.49,5.49,0,0,1,5.31,6.93L166,103a5.48,5.48,0,0,1-3.19,3.64,5.53,5.53,0,0,1,.94,4.77l-2.92,10.81a5.46,5.46,0,0,1-1.44,2.48l-4.87,4.81A5.45,5.45,0,0,1,150.61,131.11Zm-22-3.28.4.5a4.5,4.5,0,0,0,3.58,1.78h18a4.46,4.46,0,0,0,3.16-1.3l4.87-4.8a4.58,4.58,0,0,0,1.18-2l2.91-10.81a4.5,4.5,0,0,0-1.19-4.39l-.63-.61.85-.23a4.5,4.5,0,0,0,3.23-3.18l2.58-9.61a4.51,4.51,0,0,0-4.35-5.67H145l.16-.81,7.19-26.84a4.53,4.53,0,0,0-.28-3.07,3.13,3.13,0,0,0-.39-.68l-.21-.29-.4-.43-.13-.12c-2-1.61-.58-4.05-.1-4.85l.09-.14a12.21,12.21,0,0,0,1.23-4.87h0a8,8,0,0,0-1.34-4.56l-.07-.18a14.73,14.73,0,0,0-2.78-5.8l-.37-.46-.21-.2h0l-.31-.29-2.92-2.73a44.61,44.61,0,0,0-8.75-6.29l-1.12-.59-.12-.06a31.68,31.68,0,0,0-3.36-1.65,8.27,8.27,0,0,1-1.05-.57c-.4-.23-.85-.49-1.37-.76l-.11,0-.07-.1c-.21-.26-.41-.51-.61-.72a13.46,13.46,0,0,0-2.08-1.91,16.92,16.92,0,0,0-4.17-2.21l-.16-.07-.1-.15A19.76,19.76,0,0,0,119.8,14a10.64,10.64,0,0,0-2.37-2.41l-.3-.21.11-.35a11.86,11.86,0,0,0,.58-3.43,6,6,0,0,0-1.65-4.34A6,6,0,0,0,110,1.88a8.29,8.29,0,0,0-.92.38l-.5.25-.22-.1a14.46,14.46,0,0,0-2.15-.77,18.52,18.52,0,0,0-8-.38,15.54,15.54,0,0,0-6.63,2.59,11.18,11.18,0,0,0-4.77,7.42l-.5,3c.26-.14.5-.25.71-.34.61-.21.62-1,.62-1v-.35h0a10.19,10.19,0,0,1,4.49-7.86,14.59,14.59,0,0,1,6.21-2.43A17.85,17.85,0,0,1,106,2.6a13,13,0,0,1,2.62,1l1-.47a6,6,0,0,1,.8-.33,4.92,4.92,0,0,1,5.12,1.09,5,5,0,0,1,1.37,3.62,10.77,10.77,0,0,1-.85,4,2.64,2.64,0,0,1,.07.3,9.58,9.58,0,0,1,2.95,2.7A24.83,24.83,0,0,1,120.53,17,16.23,16.23,0,0,1,125,19.27,11.57,11.57,0,0,1,126.89,21c.18.2.37.43.56.66l.23.3a17.43,17.43,0,0,1,1.6.86,8.3,8.3,0,0,0,1.19.64,33.49,33.49,0,0,1,3.24,1.59l-.15.49.24-.44c.41.22.81.44,1.19.63a43.13,43.13,0,0,1,8.52,6.12L147,35.11l.23.31a13.44,13.44,0,0,1,2.67,5.69h0a7.58,7.58,0,0,1,1.3,5.52l0,.29c-.08.39-.18.84-.32,1.3l.6-.33-1.2,1.75c-.12.16-2.76,4,.19,6.37.2.21.33.35.44.49l0,.06a2.29,2.29,0,0,1,.35.6,3.42,3.42,0,0,1,.23,2.4l-7.2,26.88s0,.13-.06.31a1.81,1.81,0,0,0,.23,1.34,1.24,1.24,0,0,0,1,.38h17.82a3.5,3.5,0,0,1,3.38,4.41L164,102.5a3.51,3.51,0,0,1-3.38,2.59h-3.11l2.89,2.07a3.5,3.5,0,0,1,1.35,3.76l-2.92,10.81a3.52,3.52,0,0,1-.92,1.58l-4.86,4.8a3.48,3.48,0,0,1-2.46,1h-18a3.5,3.5,0,0,1-3.38-4.4,1.46,1.46,0,0,0,.06-.37h-.09a3.49,3.49,0,0,0-.4.62l-1,2.1a3.5,3.5,0,0,1-3.19,2.05H96.28a3.48,3.48,0,0,1-3.49-3.44h-.07l.11-.7a.68.68,0,0,0-.12-.48.78.78,0,0,0-.61-.19H84.78c-1.18,0-1.48.53-1.51.61l-.43,1.6a3.51,3.51,0,0,1-3.38,2.59H22.72a3.51,3.51,0,0,1-3.14-2l-2.35-4.81A3.49,3.49,0,0,1,17,119.9l6.45-24a3.64,3.64,0,0,1,.92-1.59l1-1c.89-1,1.77-2.4,1.58-2.84-.06-.13-.32-.21-.71-.21h-.67a3.51,3.51,0,0,1-3.38-4.4l1.18-4.43a1.2,1.2,0,0,0,0-1,.81.81,0,0,0-.54-.3h-2.2a2.13,2.13,0,0,0-2.14,1.63l-1.55,5.79a3.49,3.49,0,0,1-3.38,2.6h-8A3.5,3.5,0,0,1,2.12,85.8l7.54-28A3.51,3.51,0,0,1,13,55.15h3c.49,0,1.2,0,2.1,0h.18c5.82,0,6.54-8.72,6.58-12.46l0-4.62.11.36a19.32,19.32,0,0,1,1.23-5.93,7.83,7.83,0,0,1,5.85-5,9.59,9.59,0,0,1,2.22-.11,6.85,6.85,0,0,1,.95-.88l.08-.06a18.89,18.89,0,0,1,3.44-1.94c1.14-.47,2.27-.88,3.36-1.27l2.1-.77A13.44,13.44,0,0,0,46,21.67c.08-.05.35-.3.48-.42s.35-.33.53-.48l.43-.39a12.52,12.52,0,0,1,1.48-1.23,18.18,18.18,0,0,1,5.46-2.53,17.83,17.83,0,0,1,4.45-4,9.22,9.22,0,0,1,4-2.44,9,9,0,0,1,1.59-1.78,5.09,5.09,0,0,1,4.49-1A4.8,4.8,0,0,1,72.7,5.53a6.26,6.26,0,0,1,1.5.2l.42.08a10.32,10.32,0,0,1,3-.58l.59,0a6.41,6.41,0,0,1,5.89,3.43,4.93,4.93,0,0,1,.67,1.79,8.54,8.54,0,0,1,.17,1.22l-.48.16.49-.06,0,.15V12a15.56,15.56,0,0,1-.09,2.69v.11a2.43,2.43,0,0,0,0,.61,6.93,6.93,0,0,1,1.37-1l-.35-3.13a10.27,10.27,0,0,0-.17-1,6.34,6.34,0,0,0-.77-2.06,6.82,6.82,0,0,0-1-1.4l-.14-.21-.16-.12a7.65,7.65,0,0,0-5.49-2.2l-.65,0a12,12,0,0,0-2.87.5l-.13,0-.14,0a5.93,5.93,0,0,0-5.66,1.34l-.17.16-.23,0A6,6,0,0,0,63.78,7.6a9.59,9.59,0,0,0-1.46,1.57l-.1.13-.14,0a10.25,10.25,0,0,0-3.87,2.42l-.07.07a18.41,18.41,0,0,0-4.27,3.79l-.09.11-.15,0a19.07,19.07,0,0,0-5.3,2.54,15.26,15.26,0,0,0-1.59,1.31,4.13,4.13,0,0,1-.41.37l-.55.51-.08.07-.24.22a10.76,10.76,0,0,1-1.65.75c-.66.26-1.33.5-2,.74-1.16.42-2.32.84-3.48,1.32a19.31,19.31,0,0,0-3.67,2.06c-.3.24-.5.41-.68.58l-.15.14h-.2a10.09,10.09,0,0,0-1.78.15,8.48,8.48,0,0,0-2.4.8,9.38,9.38,0,0,0-4.21,4.77c-.11.27-.22.57-.26.68-1,2.61-1.11,5.11-1.13,8.62V42.7c0,2.7-.53,11.46-5.58,11.46h-.14c-.92,0-1.61,0-2.16,0H13a4.51,4.51,0,0,0-4.35,3.34L1.15,85.54A4.51,4.51,0,0,0,5.5,91.21h8a4.5,4.5,0,0,0,4.35-3.34l1.55-5.8a1.1,1.1,0,0,1,1.17-.88H22.4l-1.18,4.42a4.53,4.53,0,0,0,.77,3.9,4.6,4.6,0,0,0,2.84,1.7l.82.13-.5.66c-.17.23-.35.44-.51.62l-1,1a4.61,4.61,0,0,0-1.18,2l-6.46,24a4.54,4.54,0,0,0,.3,3.14l2.35,4.8a4.5,4.5,0,0,0,4,2.53H79.46a4.51,4.51,0,0,0,4.35-3.34l.38-1.41.34,0h7l.56,1.94a4,4,0,0,0,.62,1.1,4.5,4.5,0,0,0,3.57,1.76h28.36a4.52,4.52,0,0,0,3.58-1.77Zm-34.78-2.66a2.47,2.47,0,0,0,2.45,2.94h28.36a2.49,2.49,0,0,0,2.28-1.47l1-2.1h0c.17-.42.7-1.2,1.3-1.2a1,1,0,0,1,.89.34,1.47,1.47,0,0,1,.11,1.29,2.49,2.49,0,0,0,2.41,3.14h18a2.47,2.47,0,0,0,1.76-.72l4.86-4.8a2.54,2.54,0,0,0,.66-1.13l2.91-10.81a2.52,2.52,0,0,0-1-2.69l-5.44-3.89,6.28,0a2.5,2.5,0,0,0,2.37-1.85l2.59-9.61a2.51,2.51,0,0,0-.43-2.17,2.54,2.54,0,0,0-2-1h-17.8a2.22,2.22,0,0,1-1.82-.74,2.88,2.88,0,0,1-.43-2.18c0-.19.06-.3.06-.31l7.22-26.94a2.51,2.51,0,0,0-.18-1.74,2.18,2.18,0,0,0-.24-.41l0,0a4.57,4.57,0,0,0-.31-.34c-2.19-1.74-1.93-4.29-1.17-6.15l-.1.05.35-.61a7.18,7.18,0,0,1,.48-.84l0-.1a7.63,7.63,0,0,0,.81-2.38l0-.21A6.47,6.47,0,0,0,149,41.68l-.08-.1,0-.3A12.47,12.47,0,0,0,146.37,36l-.32-.36-3.22-3a42.39,42.39,0,0,0-8.29-6c-.39-.19-.79-.41-1.21-.64l-.09-.05a32.5,32.5,0,0,0-3.14-1.54,9.55,9.55,0,0,1-1.33-.71,16.38,16.38,0,0,0-1.6-.86l-.17-.12-.32-.4c-.19-.23-.36-.45-.53-.63a12.07,12.07,0,0,0-1.78-1.64A15.29,15.29,0,0,0,120,17.9l-.19-.07-.1-.17a24.1,24.1,0,0,0-1.57-2.53,8.52,8.52,0,0,0-2.83-2.53l-.21-.12,0-.24a5,5,0,0,0-.14-.61l0-.17.07-.17a9.78,9.78,0,0,0,.83-3.77,4,4,0,0,0-1.08-2.9,3.92,3.92,0,0,0-4.09-.84,6.26,6.26,0,0,0-.67.27l-1.4.7-.25-.12a11.87,11.87,0,0,0-2.63-1.06,16.86,16.86,0,0,0-7.11-.34,13.65,13.65,0,0,0-5.8,2.26,9.18,9.18,0,0,0-4.07,7.41l0,.36a2,2,0,0,1-1.15,1.58l-.07,0a6.29,6.29,0,0,0-1.93,1.28l-.09.07a.9.9,0,0,1-1.27,0,1.41,1.41,0,0,1-.29-.71l-.13.06.1-.91a15.23,15.23,0,0,0,.1-2.65h0v-.1l0-.17a8.14,8.14,0,0,0-.16-1.12,5.71,5.71,0,0,0-.34-1.09l-.21-.4a5.44,5.44,0,0,0-5-2.94,4.61,4.61,0,0,0-.52,0,9.47,9.47,0,0,0-2.75.53l-.08,0h-.17A3.45,3.45,0,0,1,74,6.7a5.28,5.28,0,0,0-1.26-.17,3.85,3.85,0,0,0-3.18,1.65l-.21.28L69,8.36a4.09,4.09,0,0,0-3.91.77,7.93,7.93,0,0,0-1.44,1.65l-.11.15-.24.14a8.23,8.23,0,0,0-3.8,2.26l-.09.08a16.7,16.7,0,0,0-4.34,3.95l-.11.13-.16.05A16.93,16.93,0,0,0,49.47,20a13.11,13.11,0,0,0-1.37,1.13l-.46.42c-.17.14-.33.3-.5.45a5,5,0,0,1-.65.55,13.23,13.23,0,0,1-2,.9c-.7.27-1.41.52-2.12.78-1.08.39-2.2.8-3.31,1.26a16.63,16.63,0,0,0-3.23,1.81,6,6,0,0,0-1,.94l-.24.19-.24,0a8.53,8.53,0,0,0-2.21.09,6.86,6.86,0,0,0-5.1,4.38c-1.05,2.46-1.25,5.94-1.24,8.43v3.29l-.06-.2c-.28,4.52-1.64,11.74-7.52,11.74h-.2c-.88,0-1.54,0-2.06,0H13A2.52,2.52,0,0,0,10.62,58L3.08,86.06a2.51,2.51,0,0,0,.43,2.17,2.54,2.54,0,0,0,2,1h8a2.51,2.51,0,0,0,2.42-1.85l1.55-5.81a3.12,3.12,0,0,1,3.1-2.36h2.25a1.82,1.82,0,0,1,1.3.72,2.07,2.07,0,0,1,.2,1.79l-1.18,4.42a2.5,2.5,0,0,0,2.41,3.15h.67c.84,0,1.39.27,1.62.8.55,1.26-1.21,3.33-1.77,3.94l-1,1a2.49,2.49,0,0,0-.66,1.13l-6.46,24a2.55,2.55,0,0,0,.17,1.74l2.34,4.81a2.52,2.52,0,0,0,2.25,1.4H79.46a2.49,2.49,0,0,0,2.41-1.85l.44-1.62h0c.12-.39.69-1.33,2.47-1.33H92.1a1.69,1.69,0,0,1,1.37.54,1.52,1.52,0,0,1,.32.65"/><path d="M40.74,125.61h-18l-2.34-4.8,6.45-24L31.7,92H49.75l-2.59,9.61-12,0L31.28,116h2.4l2-7.2h9.61Z"/><path d="M71.51,92l-3,33.63H52.89L57.16,116h2.58l1-10.57-9,20.18H42.08L57.1,92Z"/><path d="M83.63,110l-4.17,15.61H69.85l9-33.63,9.58,0v0h3.6L93,106.39,101.68,92h3.63l9.58,0-9,33.66h-9.6L100.45,110l-6.52,10.84H84.32Z"/><path d="M116.27,92h24l-4.39,9.61H123.26l-.66,2.4h12l-4.35,9.61H120.05l-.66,2.4H129l-4.36,9.61H107.23Z"/><path d="M155.47,120.81l-4.86,4.8h-18l2.55-9.61h12l.33-1.2-10.09-7.21,2.91-10.81,4.87-4.8h18l-2.58,9.61-12,0-.33,1.23L158.39,110Z"/><path d="M37.41,51.29l2.53,1c.79-.54,1.75-1.17,2.67-1.85a2.51,2.51,0,0,0,.52-.71c.29-.43.55-.87.84-1.3a7.92,7.92,0,0,0,.83-1.45A3.66,3.66,0,0,1,49.06,45a1.79,1.79,0,0,1,1.14,2.53,3.72,3.72,0,0,1-3.77,2,1.7,1.7,0,0,0-1.3.29,16.8,16.8,0,0,0-4,3.28,1.25,1.25,0,0,0-.35,1.26,5.31,5.31,0,0,1,.29.9c.23,0,.32.07.55.07,1.23,0,1.85,0,3.07,0A2.33,2.33,0,0,0,46,55a3.14,3.14,0,0,1,2.27-1,4.06,4.06,0,0,1,1.79.53,1.82,1.82,0,0,1,.81,1.63,1.54,1.54,0,0,1-.72,1.35,3.74,3.74,0,0,1-3.93-.74c-.38-.39-.73-.3-1.2-.34a6.92,6.92,0,0,0-3.87.63,1.68,1.68,0,0,0-.86.84A5.72,5.72,0,0,1,38.49,60c-.78.63-1.38.47-1.81-.45a8.12,8.12,0,0,1-.4-1.11,3.7,3.7,0,0,0-3.15-2.73,23.31,23.31,0,0,0-2.78-.16c-1.17,0-1.36-.27-1-1.38a2.37,2.37,0,0,1,.9-1.31,1.7,1.7,0,0,0,.63-.94,3.74,3.74,0,0,0-.12-2.79A14.46,14.46,0,0,1,30.06,47a1.1,1.1,0,0,0-.43-.64,3.07,3.07,0,0,1-1.27-1.92,2,2,0,0,1,.89-2.17,1.89,1.89,0,0,1,2.25.27,3.66,3.66,0,0,1,1.21,1.8A2,2,0,0,1,31.58,47a8.06,8.06,0,0,0,1.05,3.47,1.38,1.38,0,0,0,1.29.83,16.49,16.49,0,0,1,1.33-1.78,4.17,4.17,0,0,0,1.11-2.81c0-.68.11-1.37.12-2.05a1.71,1.71,0,0,0-.22-.75,4,4,0,0,1-.08-3.22,3.55,3.55,0,0,1,.43-.76,1.93,1.93,0,0,1,3.32.13,3.65,3.65,0,0,1-1,5,1.26,1.26,0,0,0-.31.3,7,7,0,0,0-1.26,3.56C37.39,49.71,37.41,50.54,37.41,51.29Z"/><path d="M83.25,48.3c.2.5-.79.71-1.27.77a3.18,3.18,0,0,0-1.16.45c0,.07,0,.24.15.25a15.85,15.85,0,0,0,2.55.13,4.08,4.08,0,0,0,.92-.2,2.16,2.16,0,0,1,1.38,0c.32.14.15.55-.06.79s-.63.12-.89,0c-.76-.25-.28-.25-1.07-.27H81.28c-.17.29-.25.5,0,.62.66.28,1.31.54,2,.79.09,0,.22,0,.34,0a1.6,1.6,0,0,1,.31,0,.75.75,0,0,1,.61.32.46.46,0,0,1-.09.62,1.09,1.09,0,0,1-.68.24c-.49,0-.84,0-1-.48a.55.55,0,0,0-.21-.35c-1-.57-2-1.22-3.3-.81,0,0-.07,0-.1.08.09.21.35.34.65.51.5.27.73.85.43,1.2A1.07,1.07,0,0,1,79,52.64a.75.75,0,0,1-.22-.78c0-.14-.31-.61-.76-.69a1.6,1.6,0,0,1-1.36-.84,17.5,17.5,0,0,0-1.64-2.18,27.51,27.51,0,0,0-2.06-2c-.57-.5-1.2-.93-1.79-1.42a7.88,7.88,0,0,0-4.75-2L71,36.33c.05.24.11.41.13.59.06.81.14,1.62.17,2.42a2.59,2.59,0,0,0,.36,1.25,29.16,29.16,0,0,0,6,7.27,4.77,4.77,0,0,0,2.2,1.22,2.11,2.11,0,0,0,2-.49C82.2,48.17,83.11,48,83.25,48.3Z"/><path d="M49.1,44.15c1,.35,2,.84,2.18,1.86a3.31,3.31,0,0,1-1,3c.25.41.23.35.44.69s.41.59.72,1.19l.34.56c.16.36,1.13,1.79,1.29,2.11a12.91,12.91,0,0,0,.81,1.13c.3.42,8.07,2,8.45,2.65.23.49,1.41,1.49,1.6,2,.28.76,3.53,1.71,4.25,1.9a5,5,0,0,1,.93.75h0l2.75-2.72a3.47,3.47,0,0,1-.71-.23c-1-.44-8-3.77-8.54-4.73-1.15-1.91-6.39-2.73-7-3.7-1.32-3.3-1.87-4.63-1.92-8.25a2.69,2.69,0,0,0-.6-1.1,3.34,3.34,0,0,0-1.54-.81l-.55-.19a3.16,3.16,0,0,1-.37-.12c-.27-.12-.55-.21-.8-.35a1.22,1.22,0,0,1,0-2.26,1.14,1.14,0,0,1,.41-.18c.59-.1,1.19-.17,1.85-.26A18.49,18.49,0,0,0,54,36.8a4.29,4.29,0,0,0,1.63-.71c1-.69,1.05-.86,1.91-1.48s2.07-1.38,3-2.15c2.21-1.76,4.33-3.63,6.52-5.41,1.58-1.28,3.19-2.54,4.85-3.71a11.76,11.76,0,0,1,2.57-1.25,4.4,4.4,0,0,1,1.66-.17c.57,0,.78.3.8.86A4,4,0,0,1,76.81,24a19.51,19.51,0,0,1-1,3c-.51,1.07-1.85,3.81-1.92,3.94,1.72-2.94,2.27-4,2.57-4.46a41.36,41.36,0,0,0,4.45-10.21,14,14,0,0,0,.55-4.22c-.1-1.85-1.12-3.51-3.61-3.34a7.08,7.08,0,0,0-2,.37,4,4,0,0,1-2.45,0,1.55,1.55,0,0,0-2,.77,12.23,12.23,0,0,0-.62,1.39c-.8-.17-1.65-.3-2.47-.52a1.63,1.63,0,0,0-1.59.26,6.18,6.18,0,0,0-1,1.16,5.82,5.82,0,0,0-.49,1.07,1.17,1.17,0,0,1-.2.06,5.59,5.59,0,0,0-3.76,1.79,2.29,2.29,0,0,1-.52.41,14.19,14.19,0,0,0-4,3.77,1.32,1.32,0,0,1-.82.54,14.68,14.68,0,0,0-5,2.21,21.09,21.09,0,0,0-1.62,1.38,10.62,10.62,0,0,1-1.51,1.26,14.94,14.94,0,0,1-2.33,1.08c-1.79.69-3.61,1.28-5.37,2a14.25,14.25,0,0,0-2.69,1.5,3.9,3.9,0,0,0-.68.67c-.22.29-.63.42-.81.78a9.24,9.24,0,0,1,1.3.62A12.82,12.82,0,0,1,39.64,33c.37.32.78.54,1.4,1.11l-.49-.34C38,31.93,35.13,30.54,32.63,31a4.43,4.43,0,0,0-3.24,2.89c-1,2.25-1.07,5.8-1,7.9a3,3,0,0,1,1.28-.61,5.49,5.49,0,0,1,1,0,4.15,4.15,0,0,1,1.78.56,6.68,6.68,0,0,1,1,1.42c.67,1.7.41,3.81-.81,4.42a2.86,2.86,0,0,0,1,2.15,13.27,13.27,0,0,1,.86-1.16,7.33,7.33,0,0,0,.86-4s-.86-2.23-.5-3.44a4,4,0,0,1,1.9-2.55,4,4,0,0,1,2.48-.28c.8.22,2.71,1.5,2.42,4.57a10,10,0,0,1-1.33,2.91,6.41,6.41,0,0,0-1,1.68,4.45,4.45,0,0,0-.18,3.09c.76.3,1.58-.42,2.68-1.32A20.12,20.12,0,0,0,44,46C45.63,43.35,49.1,44.15,49.1,44.15ZM72.47,18.57A3.27,3.27,0,0,1,69.26,16a3.33,3.33,0,0,1,2.21-3.78,3.12,3.12,0,0,1,3.84,1.66c-.67-.14-1.25.58-1.33.9A1.07,1.07,0,0,0,74.51,16c.51.29,1-.21,1-.21A3.14,3.14,0,0,1,72.47,18.57Z"/><path d="M146.57,42.92s-.06-.56-.17-1.21a10,10,0,0,0-2.06-4.25l-3.22-3a40.23,40.23,0,0,0-7.71-5.55c-1.31-.66-2.87-1.59-4.23-2.14s-2-1.18-3.23-1.69c-.65-.28-1.16-1.13-1.65-1.68a10.71,10.71,0,0,0-1.4-1.29,13.31,13.31,0,0,0-4.24-2,1.18,1.18,0,0,1-.79-.67,29.79,29.79,0,0,0-1.71-2.82,5.7,5.7,0,0,0-3.39-2.33,1.43,1.43,0,0,1-.21-.11,8,8,0,0,0,.08-1.46,8.8,8.8,0,0,0-.45-1.48,7,7,0,0,0,1.13-3.75,1.29,1.29,0,0,0-1.88-1.32,2.44,2.44,0,0,0-.34.14l-2.74,1.38A8.86,8.86,0,0,0,105.06,6,14.25,14.25,0,0,0,99,5.7a11.33,11.33,0,0,0-4.77,1.83,6.7,6.7,0,0,0-3,5.81c0,.88,0,1.76,0,2.66a7,7,0,0,0-.88.52,2.23,2.23,0,0,1-1,.38,1.45,1.45,0,0,0-1.2,2.18,3,3,0,0,1,.13,1c0,.88-.14,1.76-.1,2.64a5.79,5.79,0,0,0,4.69,5.75,13.18,13.18,0,0,0,1.88.32,1.91,1.91,0,0,1,1.22.57,14.06,14.06,0,0,0,5.1,3.28c.08,0,.14.1.24.18a3.87,3.87,0,0,0-.59.51,1.66,1.66,0,0,0-.36.62,8.34,8.34,0,0,0-.53,3.88,7.17,7.17,0,0,0,.28,1.13,2.42,2.42,0,0,1,0,2.76,14.38,14.38,0,0,1-1.64,2.43c-.86,1-2.3,3.06-3.21,4a6.14,6.14,0,0,1-2,.65,10.88,10.88,0,0,0-1.66.47,7.17,7.17,0,0,1-.81,0,.83.83,0,0,0-.92.42,3,3,0,0,1-.37.5l.24,0a.65.65,0,0,0-.17.2,2.76,2.76,0,0,1-.33.52l.38.06c.08,0,.42.22.6.14h.07l-.06.05c-.16.1-.21.49-.23.57a3.52,3.52,0,0,1-.17.34,3.32,3.32,0,0,1,.63,0,2,2,0,0,0,.8-.19.87.87,0,0,0-.17.4,2.63,2.63,0,0,1-.08.55l.25,0a1.69,1.69,0,0,0,.66-.13,2.33,2.33,0,0,0,.49-.37h0c.11,0,1-.34,2.41-.73a12.69,12.69,0,0,0,1.94-.72,6.2,6.2,0,0,0,.81-.55c.14-.1.28-.24.58-.51a10.83,10.83,0,0,0,.91-1c.57-.7,1.17-1.38,1.76-2.07a16.32,16.32,0,0,1,3.79-3.68c-.62-.85-1.22-1.69-1.83-2.5a2.08,2.08,0,0,1-.2-.33c-.08-.18-.14-.35-.2-.5a6.74,6.74,0,0,1-.21-3.77,6.48,6.48,0,0,1,.52-1.67,1.64,1.64,0,0,1,1.9-.94,14.27,14.27,0,0,1,1.72.53,10.53,10.53,0,0,0,2.44,5.91,4,4,0,0,0,.64.82,3.82,3.82,0,0,1,1.46,2.87,11.69,11.69,0,0,1,0,4.45,23,23,0,0,1-3,7.79c-.22.37-.85,1.57-1.15,2a10.7,10.7,0,0,1-.8,1l.22.3,2.35,3.15a6.85,6.85,0,0,0,2-2.08A28.2,28.2,0,0,1,113,57a18.07,18.07,0,0,0,2.45-3.69,48.61,48.61,0,0,1,4-6c1-1.33,3.72-2.81,3.84-3s-.19-3-.13-3.13a31.74,31.74,0,0,1,3.1,1.12c.45.16.54.16,1.08.35l.92.34c-.35-3,.08-8.34,2.31-9.44,3.74-1.85,10.12,3.55,10.49,4.33-1.07-1-7.08-6.06-10.4-3.08-1.22,1.1-2.1,4.24-1.66,8.51a9.88,9.88,0,0,1,1,1,3.63,3.63,0,0,1,.5-1.86,3.51,3.51,0,0,1,1.19-1.53,2.94,2.94,0,0,1,.67-.39,5.32,5.32,0,0,1,.3-1c.09-.21.73-1.1.9-1.11a9.31,9.31,0,0,1,.65.91,10.25,10.25,0,0,1,.33,1.3c1.73.75,2,4.8,1.53,6a9.06,9.06,0,0,1,1.48-1.76,2.88,2.88,0,0,1,1.53-.75,4.6,4.6,0,0,1,.65-.56c.21-.17.49-.37.62-.47a1.42,1.42,0,0,1,.84-.38c.13,0,0,1.19,0,1.53a2.91,2.91,0,0,1-.25,1,5.87,5.87,0,0,1-.25,3.63c-.22.36-.77,1.44-1.14,2s-.77,1.95-.54,2.24c.49.63,1.75.37,1.75.37,1,0,3.32-1.88,3.51-2a7,7,0,0,0,2-2.87c.43-.18.94,0,1.38-2.23C147.87,44.31,147.21,43.08,146.57,42.92Zm-51-25.45a1.6,1.6,0,0,1-2-.18.65.65,0,0,0,.7-.28,1.19,1.19,0,0,0,0-1.26,1.18,1.18,0,0,0-1.06-.46A1.48,1.48,0,0,1,95,14.45a1.63,1.63,0,0,1,.64,3Z"/><path d="M137.52,55.49a7,7,0,0,1-.05.8.89.89,0,0,1-1.18.87,6.15,6.15,0,0,1-1.31-.45,3.83,3.83,0,0,0-4.26.58,14.86,14.86,0,0,0-1.2,1.18c-.29.31-.54.64-.83,1-.62.67-.87.65-1.44-.06a2.57,2.57,0,0,1-.48-2.36,7.51,7.51,0,0,1,.81-2c.71-1.14,1.52-2.22,2.3-3.32a3.24,3.24,0,0,1,.4-.43,3.54,3.54,0,0,1,5.44.05A5.91,5.91,0,0,1,137.52,55.49Z"/><path d="M124.59,45.86a2,2,0,0,1,2.93-2,5,5,0,0,1,3,4.63,1.92,1.92,0,0,1-2.44,1.93,3.83,3.83,0,0,1-.63-.2A5.09,5.09,0,0,1,124.59,45.86Z"/><path d="M131.08,45.18a5.18,5.18,0,0,1,.7-2.71,1.91,1.91,0,0,1,1.67-1.15,1.82,1.82,0,0,1,1.6,1.34,5.63,5.63,0,0,1-.36,5.08,2,2,0,0,1-.36.46,1.51,1.51,0,0,1-2.5-.14A4.73,4.73,0,0,1,131.08,45.18Z"/><path d="M125.26,54.3a3.05,3.05,0,0,1-2.58-1.45,1.94,1.94,0,0,1,.06-2.33,1.85,1.85,0,0,1,2.19-.54,3.49,3.49,0,0,1,2,1.68C127.74,53.1,127,54.28,125.26,54.3Z"/><path d="M140.25,46.67c0,.12-.05.37-.11.6a5.06,5.06,0,0,1-2.6,3.22c-.78.4-1.3.14-1.57-.71a2,2,0,0,1,.07-1.37,6.45,6.45,0,0,1,1.85-2.69,2,2,0,0,1,.42-.3C139.36,44.83,140.25,45.35,140.25,46.67Z"/><path d="M133.83,40.52H133a1.91,1.91,0,0,1,.53-1.37C133.91,39.57,133.83,40,133.83,40.52Z"/><path d="M140.72,43.86a5.35,5.35,0,0,1-.19,1l-.74-.45a1.53,1.53,0,0,1,1-1C140.8,43.51,140.76,43.62,140.72,43.86Z"/><path d="M124.06,42.25a6.57,6.57,0,0,1,1.25.78l-.62.53A2.89,2.89,0,0,1,124.06,42.25Z"/><path d="M121.77,50.7c-.55-.45-.59-.43-.77-.93a2.2,2.2,0,0,1,1.13.26Z"/><path d="M13,58.65h20l-3.66,8H18.87l-.55,2h10l-3.63,8H16.19l-2.68,10h-8Z"/><path d="M41.3,80.19l1.55,6.58H36.26l-1.54-6.58H33.9l-1.75,6.58H25.56l6.16-23h14L47.33,67l-2.65,9.87Zm-4.73-9.88-.88,3.29H39l.86-3.29Z"/><path d="M44.68,83.48,49.1,67l3.33-3.29H64L65.58,67,61.16,83.48,57.8,86.77H46.28ZM54.8,70.31l-2.65,9.88h3.31l2.63-9.88Z"/><path d="M105.15,83.48,109.57,67l3.34-3.29h11.56L126.05,67l-4.42,16.46-3.35,3.29H106.75Zm10.12-13.17-2.65,9.88h3.31l2.63-9.88Z"/><path d="M140.52,86.72h-15l-2-4,5.39-20,4.06-4H148l-2.15,8-10,0-3.23,12h2l1.63-6h8Z"/><path d="M106.68,58.73h-.91l.22.3,2.35,3.15a13.68,13.68,0,0,1-1.55.74h0s-1.88,1.07-2,1.49-.54.47-.74.69-.89.26-1,.27-.4.07-.4.07a4.74,4.74,0,0,0,.1-.89A1.35,1.35,0,0,1,103,64a3.46,3.46,0,0,1-1.3.46,5.66,5.66,0,0,0-1,0s.19-.44.22-.57,0-.76.27-.95a.93.93,0,0,0,.16-.18,1.71,1.71,0,0,0-.36.1c-.28.14-.85-.11-1-.14s-.62-.05-.62-.05a4.89,4.89,0,0,0,.46-.88,1.47,1.47,0,0,1,.46-.55l-.49-.06a4.38,4.38,0,0,0,.5-.86,1.36,1.36,0,0,1,1.41-.82,6.62,6.62,0,0,1,1.93.61c.29-.17.64-.43,1.18-.81.19-.14.64-.43,1-.62H89.6L82.11,86.78h17l4.09-4,5.38-20Zm-10.39,20h-4l3.23-12h4Z"/><path d="M85.4,66.68l2.16-8H72.5l-.6.6A2.47,2.47,0,0,0,73.77,59c.53-.42,1.69-.32,1.8,0,.11.66-1.39,1-2.17.58-.76,0-1.14.09-1.19.19s0,.31.12.35c1.57.41,1.66.84,3.31.92a9.61,9.61,0,0,0,1.2,0,2.91,2.91,0,0,1,1.73.36c.35.26,0,.71-.3.95s-.82,0-1.11-.22a3.18,3.18,0,0,0-1.44-.65A10.64,10.64,0,0,0,73.07,61c-.06,0-.62.49-.3.72.73.52,1.18.87,1.94,1.36.1.07.27,0,.44,0a1.41,1.41,0,0,1,.38.09,1,1,0,0,1,.67.55.58.58,0,0,1-.28.73,1.4,1.4,0,0,1-.92.09c-.6-.18-1.06-.18-1.07-.85a.7.7,0,0,0-.16-.48c-1.12-1-2.19-2.06-3.88-1.93,0,0-.1,0-.15.07.05.29.26,1.05,2,1.89a.68.68,0,0,1,.11,1.08.57.57,0,0,1-.88,0,1.86,1.86,0,0,1-.52-.88c.07-.1-.64-.9-1.3-1.53l-.71.69-5.38,20,2,4H80l3.76-14h-8l-1.62,6h-2l3.23-12Z"/><rect class="cls-2" x="95.36" y="123.3" width="7.7" height="7.7"/></g></g></svg>